<?xml version="1.0" encoding="utf-8"?>
<!-- Generator: Adobe Illustrator 27.9.2, SVG Export Plug-In . SVG Version: 6.00 Build 0)  -->
<svg version="1.1" id="Layer_1" xmlns="http://www.w3.org/2000/svg" xmlns:xlink="http://www.w3.org/1999/xlink" x="0px" y="0px"
	 viewBox="0 0 97.7 49.8" style="enable-background:new 0 0 97.7 49.8;" xml:space="preserve">
<style type="text/css">
	.st0{fill:#417792;}
	.st1{fill:#666667;}
</style>
<g>
	<g>
		<path class="st0" d="M82.48,15.97H69.64c-1.13,0-2.11-0.87-2.17-2c-0.06-1.21,0.91-2.21,2.1-2.21h16.76
			c0.08,0,0.14-0.06,0.14-0.14V8.1c0-0.08-0.06-0.14-0.14-0.14H69.68c-3.3,0-6.06,2.7-6,6c0.05,3.21,2.68,5.8,5.9,5.8h12.84
			c1.13,0,2.11,0.87,2.17,2c0.06,1.21-0.91,2.21-2.1,2.21H65.5c-0.08,0-0.14,0.06-0.14,0.14v3.52c0,0.08,0.06,0.14,0.14,0.14h16.87
			c3.3,0,6.06-2.7,6.01-6C88.32,18.56,85.7,15.97,82.48,15.97"/>
		<path class="st0" d="M39.58,21.87c0-1.16,0.95-2.11,2.11-2.11h12.79c3.3,0,6.06-2.7,6-6c-0.05-3.21-2.68-5.8-5.9-5.8H37.82
			c-0.08,0-0.14,0.06-0.14,0.14v3.52c0,0.08,0.06,0.14,0.14,0.14h16.7c1.13,0,2.11,0.87,2.17,2c0.06,1.21-0.91,2.21-2.1,2.21H41.79
			c-3.3,0-6.06,2.7-6,6c0.05,3.21,2.68,5.8,5.9,5.8h16.98c0.08,0,0.14-0.06,0.14-0.14v-3.52c0-0.08-0.06-0.14-0.14-0.14H41.69
			C40.53,23.97,39.58,23.03,39.58,21.87"/>
		<path class="st0" d="M24.33,20.82h-9.72c-0.09,0-0.18,0.03-0.25,0.08l-2.56,1.91c-0.05,0.03-0.11,0-0.11-0.06V11.82
			c0-0.04,0.03-0.07,0.07-0.07h12.82c2.56,0,4.69,2.07,4.64,4.62C29.17,19.02,27,20.82,24.33,20.82 M24.33,7.96H8.03
			c-0.08,0-0.14,0.06-0.14,0.14v22.92c0,0.06,0.07,0.09,0.11,0.05l7.61-6.37c0.07-0.06,0.17-0.1,0.27-0.1h8.67
			c4.65,0,8.5-3.75,8.46-8.4C32.97,11.46,29.09,7.96,24.33,7.96"/>
	</g>
	<g>
		<path class="st1" d="M23.27,39.11l-0.8-1.94l-0.8,1.94H23.27z M24.79,40.48v0.14H23.1v-0.14c0.59-0.04,0.64-0.22,0.5-0.56
			l-0.24-0.58h-1.79l-0.23,0.56c-0.16,0.38-0.12,0.54,0.48,0.58v0.14h-1.36v-0.14c0.26-0.04,0.4-0.09,0.51-0.34l1.54-3.69h0.28
			l1.54,3.72C24.41,40.37,24.51,40.44,24.79,40.48"/>
		<path class="st1" d="M65.2,39.48l0.14,0.06c-0.17,0.5-0.65,1.17-1.59,1.17c-1.17,0-1.96-0.87-1.96-2.04
			c0-1.29,0.81-2.24,2.03-2.24c0.87,0,1.38,0.41,1.52,0.87l-0.58,0.31c-0.14-0.52-0.48-0.93-1.01-0.93c-0.84,0-1.34,0.66-1.33,1.82
			c0,1.06,0.65,1.76,1.51,1.76C64.56,40.26,65.04,39.89,65.2,39.48"/>
		<path class="st1" d="M68,39.23c0-0.64-0.27-1.54-0.96-1.54c-0.5,0-0.83,0.5-0.83,1.22c0,0.64,0.27,1.54,0.96,1.54
			C67.67,40.46,68,39.94,68,39.23 M65.65,39.14c0-1.02,0.67-1.7,1.47-1.7c0.87,0,1.44,0.66,1.44,1.57c0,1.01-0.67,1.68-1.48,1.68
			C66.22,40.71,65.65,40.05,65.65,39.14"/>
		<path class="st1" d="M74.16,40.48v0.14h-1.39v-0.14c0.23-0.04,0.42-0.1,0.42-0.37v-1.57c0-0.47-0.25-0.67-0.61-0.67
			c-0.28,0-0.52,0.12-0.82,0.47c0.01,0.04,0.01,0.09,0.01,0.14v1.63c0,0.26,0.19,0.33,0.44,0.37v0.14h-1.39v-0.14
			c0.23-0.04,0.42-0.1,0.42-0.37v-1.57c0-0.47-0.25-0.67-0.6-0.67c-0.28,0-0.51,0.12-0.81,0.46v1.78c0,0.26,0.19,0.33,0.43,0.37
			v0.14h-1.41v-0.14c0.25-0.04,0.44-0.1,0.44-0.37v-1.89c0-0.23-0.08-0.37-0.37-0.39l-0.07-0.01v-0.13l0.86-0.25h0.12v0.69
			c0.35-0.49,0.67-0.69,1.04-0.69c0.43,0,0.79,0.25,0.89,0.74c0.36-0.52,0.68-0.74,1.06-0.74c0.51,0,0.93,0.34,0.93,1.03v1.63
			C73.73,40.37,73.91,40.44,74.16,40.48"/>
		<path class="st1" d="M76.92,39.21c0-0.66-0.27-1.39-0.9-1.39c-0.31,0-0.61,0.14-0.77,0.31v1.39c0,0.46,0.26,0.97,0.81,0.97
			C76.57,40.48,76.92,39.96,76.92,39.21 M77.49,38.97c0,1.09-0.72,1.73-1.52,1.73c-0.33,0-0.55-0.1-0.7-0.25v0.87
			c0,0.26,0.2,0.33,0.46,0.37v0.14h-1.43v-0.14c0.25-0.04,0.44-0.1,0.44-0.37v-3.11c0-0.26-0.09-0.37-0.36-0.39l-0.07-0.01v-0.13
			l0.86-0.25h0.12v0.53c0.17-0.25,0.52-0.53,0.96-0.53C77,37.45,77.49,38.14,77.49,38.97"/>
		<path class="st1" d="M79.76,39.82v-0.87l-0.37,0.09c-0.68,0.15-0.91,0.37-0.91,0.78c0,0.33,0.25,0.5,0.52,0.5
			C79.31,40.32,79.58,40.17,79.76,39.82 M80.76,40.31v0.14l-0.88,0.26h-0.12v-0.69c-0.22,0.47-0.6,0.69-1.01,0.69
			c-0.44,0-0.83-0.28-0.83-0.8c0-0.59,0.47-0.87,1.44-1.08l0.41-0.09v-0.1c0-0.6-0.28-0.96-0.74-0.96c-0.36,0-0.57,0.23-0.57,0.55
			c0,0.12,0.03,0.22,0.09,0.34l-0.5,0.18c-0.08-0.13-0.12-0.23-0.12-0.36c0-0.5,0.57-0.93,1.25-0.93c0.71,0,1.12,0.46,1.12,1.2v1.26
			c0,0.25,0.06,0.4,0.39,0.4H80.76z"/>
		<path class="st1" d="M84.27,40.48v0.14h-1.39v-0.14c0.23-0.04,0.42-0.1,0.42-0.37v-1.57c0-0.47-0.25-0.67-0.6-0.67
			c-0.28,0-0.51,0.12-0.81,0.46v1.78c0,0.26,0.19,0.33,0.43,0.37v0.14H80.9v-0.14c0.25-0.04,0.44-0.1,0.44-0.37v-1.89
			c0-0.23-0.08-0.37-0.37-0.39l-0.07-0.01v-0.13l0.86-0.25h0.12v0.69c0.35-0.49,0.67-0.69,1.04-0.69c0.51,0,0.92,0.34,0.92,1.03
			v1.63C83.84,40.37,84.03,40.44,84.27,40.48"/>
		<path class="st1" d="M85.62,40.51l-1.16-2.6c-0.06-0.12-0.13-0.18-0.37-0.23v-0.14h1.41v0.14c-0.42,0.06-0.51,0.14-0.4,0.39
			l0.81,1.86l0.8-1.86c0.11-0.26-0.01-0.33-0.41-0.39v-0.14h1.08v0.14c-0.22,0.04-0.31,0.1-0.37,0.24l-1.69,3.92h-0.55v-0.09
			L85.62,40.51z"/>
		<polygon class="st1" points="40.54,40.62 36.44,40.62 36.44,36.38 40.53,36.38 40.53,37.43 37.5,37.43 37.5,39.56 39.48,39.56 
			39.48,37.94 40.54,37.94 		"/>
		<polygon class="st1" points="31.21,40.62 27.11,40.62 27.11,36.38 28.17,36.38 28.17,38.06 28.17,39.56 30.15,39.56 30.15,39.56 
			31.21,39.56 		"/>
		<rect x="31.78" y="36.38" class="st1" width="4.09" height="1.06"/>
		<rect x="31.78" y="39.56" class="st1" width="4.09" height="1.06"/>
		<rect x="31.78" y="37.94" class="st1" width="4.09" height="1.06"/>
		<rect x="41.11" y="36.38" class="st1" width="4.09" height="1.06"/>
		<rect x="41.11" y="39.56" class="st1" width="4.09" height="1.06"/>
		<rect x="41.11" y="37.94" class="st1" width="4.09" height="1.06"/>
		<rect x="55.1" y="36.38" class="st1" width="4.09" height="1.06"/>
		<rect x="55.1" y="39.56" class="st1" width="4.09" height="1.06"/>
		<rect x="55.1" y="37.94" class="st1" width="4.09" height="1.06"/>
		<polygon class="st1" points="54.53,40.62 50.44,40.62 50.44,36.38 54.53,36.38 54.53,37.43 51.5,37.43 51.5,39.56 54.53,39.56 		
			"/>
		<polygon class="st1" points="45.77,40.62 45.77,36.38 49.87,36.38 49.87,40.62 48.81,40.62 48.81,37.43 46.83,37.43 46.83,40.62 
					"/>
	</g>
</g>
</svg>
