<?xml version="1.0" encoding="UTF-8"?>
<svg width="60px" height="83px" viewBox="0 0 60 83" version="1.1" xmlns="http://www.w3.org/2000/svg" xmlns:xlink="http://www.w3.org/1999/xlink">
    <title>Logo</title>
    <g id="Icons" stroke="none" stroke-width="1" fill="none" fill-rule="evenodd">
        <g id="Logo" transform="translate(0.000000, 1.000000)">
            <g id="Group-11" transform="translate(0.000000, 15.000000)">
                <path d="M54.5153646,51.2529176 C54.5153646,50.3792014 55.31958,49.6711743 56.31078,49.6711743 C57.3037954,49.6711743 58.1061954,50.3792014 58.1061954,51.2529176 C58.1061954,52.1257284 57.3037954,52.83285 56.31078,52.83285 C55.31958,52.83285 54.5153646,52.1257284 54.5153646,51.2529176" id="Fill-1" fill="#FEFEFE"></path>
                <path d="M54.5153646,51.2529176 C54.5153646,50.3792014 55.31958,49.6711743 56.31078,49.6711743 C57.3037954,49.6711743 58.1061954,50.3792014 58.1061954,51.2529176 C58.1061954,52.1257284 57.3037954,52.83285 56.31078,52.83285 C55.31958,52.83285 54.5153646,52.1257284 54.5153646,51.2529176 Z" id="Stroke-3" stroke="#FEFEFE" stroke-width="0.233"></path>
                <path d="M21.6684308,63.4117878 C24.4396154,63.7667068 26.7333538,64.5326797 27.8062462,66.9999095 C28.8782308,64.5326797 31.1683385,63.7440716 33.9404308,63.3891527 C45.9437538,61.8128419 55.5861692,55.7140311 55.5861692,48.4101257 L55.5861692,0.857328378 L0,0.857328378 L0,48.4101257 C0,55.7122203 9.66510769,61.8345716 21.6657077,63.4117878 L21.6684308,63.4117878 Z" id="Fill-5" fill="#FEFEFE"></path>
                <path d="M55.8427738,50.5800203 C55.6657738,50.7574797 55.5759123,50.9720608 55.5759123,51.2237635 C55.5759123,51.477277 55.6648662,51.6936689 55.8409585,51.8729392 C56.0188662,52.0503986 56.2339892,52.138223 56.4881431,52.138223 C56.7395738,52.138223 56.9556046,52.0503986 57.1326046,51.8729392 C57.3105123,51.6936689 57.3985585,51.477277 57.3985585,51.2237635 C57.3985585,50.9720608 57.3105123,50.7574797 57.1326046,50.5800203 C56.9546969,50.4016554 56.7395738,50.3120203 56.4881431,50.3120203 C56.2348969,50.3120203 56.0206815,50.4016554 55.8427738,50.5800203 L55.8427738,50.5800203 Z M57.2378969,51.9743446 C57.0309431,52.1816824 56.78042,52.2848986 56.4881431,52.2848986 C56.1922354,52.2848986 55.9444354,52.1816824 55.7374815,51.9743446 C55.5314354,51.7688176 55.4306815,51.5171149 55.4306815,51.2237635 C55.4306815,50.9340338 55.5332508,50.6859527 55.7402046,50.4786149 C55.9462508,50.2703716 56.1940508,50.1698716 56.4881431,50.1698716 C56.78042,50.1698716 57.0309431,50.2703716 57.2378969,50.4786149 C57.4448508,50.6832365 57.5483277,50.9331284 57.5483277,51.2237635 C57.5483277,51.5153041 57.4448508,51.7661014 57.2378969,51.9743446 L57.2378969,51.9743446 Z M56.68602,50.8226689 C56.6342815,50.7946014 56.5525892,50.7792095 56.4391277,50.7792095 L56.2639431,50.7792095 L56.2639431,51.200223 L56.4491123,51.200223 C56.5362508,51.200223 56.6016046,51.1920743 56.6442662,51.1748716 C56.7241431,51.1440878 56.7640815,51.0825203 56.7640815,50.9928851 C56.7640815,50.9086824 56.7386662,50.8534527 56.68602,50.8226689 L56.68602,50.8226689 Z M56.4663585,50.6406824 C56.6106815,50.6406824 56.7168815,50.6551689 56.7831431,50.6832365 C56.9047738,50.7330338 56.9646815,50.831723 56.9646815,50.9774932 C56.9646815,51.0798041 56.9274662,51.1558581 56.8503123,51.20475 C56.8103738,51.2301014 56.7540969,51.2500203 56.6814815,51.2608851 C56.7722508,51.2771824 56.8403277,51.3124932 56.8829892,51.3758716 C56.9247431,51.4356284 56.94562,51.4981014 56.94562,51.5542365 L56.94562,51.6393446 C56.94562,51.6683176 56.9483431,51.6963851 56.9492508,51.7280743 C56.9510662,51.7570473 56.9546969,51.7778716 56.9592354,51.7878311 L56.9664969,51.8014122 L56.7749738,51.8014122 C56.7722508,51.7968851 56.7722508,51.7932635 56.7713431,51.7905473 C56.7704354,51.7860203 56.7695277,51.7814932 56.76862,51.7760608 L56.7640815,51.7389392 L56.7640815,51.6483986 C56.7640815,51.5125878 56.7277738,51.4256689 56.6533431,51.3813041 C56.6106815,51.3559527 56.5353431,51.343277 56.42642,51.343277 L56.2639431,51.343277 L56.2639431,51.8014122 L56.0597123,51.8014122 L56.0597123,50.6406824 L56.4663585,50.6406824 Z" id="Fill-7" fill="#AF231C"></path>
                <path d="M21.9590738,62.0089527 C24.5977354,62.3466689 26.7843662,63.0746149 27.8064277,65.4259527 C28.8266738,63.0746149 31.0069508,62.3231284 33.6456123,61.9845068 C45.0789046,60.48425 54.2629354,54.6769797 54.2629354,47.7180338 L54.2629354,2.43056081 L1.32450462,2.43056081 L1.32450462,47.7180338 C1.32450462,54.6769797 10.5275969,60.5041689 21.9572585,62.0089527 L21.9590738,62.0089527 Z" id="Fill-9" fill="#AF231C"></path>
            </g>
            <polygon id="Fill-12" fill="#AF231C" points="7 57 49 57 49 17 7 17"></polygon>
            <polygon id="Fill-13" fill="#FEFEFE" points="52 62 53 62 53 17 52 17"></polygon>
            <polygon id="Fill-14" fill="#FEFEFE" points="49 62 49.824 62 49.824 17 49 17"></polygon>
            <polygon id="Fill-15" fill="#FEFEFE" points="3 62 4 62 4 17 3 17"></polygon>
            <polygon id="Fill-16" fill="#FEFEFE" points="6 62 6.824 62 6.824 17 6 17"></polygon>
            <g id="Group-31" transform="translate(3.000000, 48.000000)">
                <path d="M0.490090909,14.1672774 C0.490090909,6.59463226 11.521,0.456309677 25.1291818,0.456309677 C38.7364545,0.456309677 49.7673636,6.59463226 49.7673636,14.1672774 C49.7673636,21.7381161 38.7364545,27.8782452 25.1291818,27.8782452 C11.521,27.8782452 0.490090909,21.7381161 0.490090909,14.1672774" id="Fill-17" fill="#FEFEFE"></path>
                <path d="M2.49809091,14.1672774 C2.49809091,7.69747097 12.6299091,2.45153548 25.129,2.45153548 C37.629,2.45153548 47.7608182,7.69747097 47.7608182,14.1672774 C47.7608182,20.6379871 37.629,25.8821161 25.129,25.8821161 C12.6299091,25.8821161 2.49809091,20.6379871 2.49809091,14.1672774" id="Fill-19" fill="#AF231C"></path>
                <path d="M2.49809091,14.1672774 C2.49809091,7.69747097 12.6299091,2.45153548 25.129,2.45153548 C37.629,2.45153548 47.7608182,7.69747097 47.7608182,14.1672774 C47.7608182,20.6379871 37.629,25.8821161 25.129,25.8821161 C12.6299091,25.8821161 2.49809091,20.6379871 2.49809091,14.1672774 Z" id="Stroke-21" stroke="#AF231C" stroke-width="1.071"></path>
                <path d="M25.129,25.8821161 C12.6299091,25.8821161 2.49809091,20.6379871 2.49809091,14.1672774 L25.129,14.1672774 L25.129,25.8821161 Z" id="Fill-23" fill="#FEFEFE"></path>
                <path d="M25.129,25.8821161 C12.6299091,25.8821161 2.49809091,20.6379871 2.49809091,14.1672774 L25.129,14.1672774 L25.129,25.8821161 Z" id="Stroke-25" stroke="#AF231C" stroke-width="0.461"></path>
                <path d="M25.129,2.45189677 C37.629,2.45189677 47.7608182,7.69783226 47.7608182,14.1676387 L25.129,14.1676387 L25.129,2.45189677 Z" id="Fill-27" fill="#FEFEFE"></path>
                <path d="M25.129,2.45189677 C37.629,2.45189677 47.7608182,7.69783226 47.7608182,14.1676387 L25.129,14.1676387 L25.129,2.45189677 Z" id="Stroke-29" stroke="#AF231C" stroke-width="0.461"></path>
            </g>
            <path d="M7,57 L49,57 M48.9364446,67 L7.04237028,67" id="Stroke-32" stroke="#AF231C" stroke-width="1.471"></path>
            <g id="Group-85" transform="translate(4.000000, 0.000000)">
                <path d="M1.59103718,57.2983264 L46.9117936,57.2983264 C46.9117936,57.2983264 48.2853705,60.1395035 48.2917584,62.0855907 C48.2972038,63.5428633 46.9117936,66.872855 46.9117936,66.872855 L1.59103718,66.872855 C1.59103718,66.872855 0.129165385,64.0371804 0.128254704,62.0855907 C0.127344872,60.1321667 1.59103718,57.2983264 1.59103718,57.2983264" id="Fill-33" fill="#FEFEFE"></path>
                <path d="M2.29730513,62.5534953 L2.29730513,65.8367149 L4.56020256,65.8367149 L4.56020256,63.3513727 C5.75445897,63.3825541 6.71568974,63.1679526 7.2846,62.5544124 L2.29730513,62.5534953 Z M7.93179231,62.5534953 L7.06249744,65.8367149 L9.39275385,65.8367149 L9.58026667,64.8581687 L11.0994846,64.8581687 L11.2669718,65.8367149 L13.6063308,65.8367149 L12.8389846,62.5534953 L10.7372026,62.5534953 L10.8336897,63.2486575 L9.87974103,63.2486575 L10.0035359,62.5534953 L7.93179231,62.5534953 Z M13.3560103,62.5534953 C13.4807154,64.3115769 14.3390872,65.9687774 16.6010744,65.9687774 C18.8621513,65.9687774 19.4674718,64.2317891 19.5903564,62.5516611 L16.4563436,62.5534953 L16.4563436,63.0478125 L17.2883179,63.0478125 C17.299241,63.4898549 17.1108179,64.1354936 16.5118692,64.1354936 C15.7672795,64.1354936 15.6871769,63.1752894 15.6607795,62.5544124 L13.3560103,62.5534953 Z M20.1465231,62.5534953 L20.1465231,65.8367149 L24.107959,65.8367149 L24.107959,64.0447007 L22.4094205,64.0447007 L22.4094205,62.5534953 L20.1465231,62.5534953 Z M24.4611385,65.8367149 L26.7231256,65.8367149 L26.7231256,62.5534953 L24.4611385,62.5534953 L24.4611385,65.8367149 Z M27.7799333,62.5534953 L26.9097282,65.8367149 L29.2399846,65.8367149 L29.4284077,64.8581687 L30.9467154,64.8581687 L31.1142026,65.8367149 L33.4535615,65.8367149 L32.6871256,62.5534953 L30.5853436,62.5534953 L30.6818308,63.2486575 L29.7278821,63.2486575 L29.8507667,62.5534953 L27.7799333,62.5534953 Z M33.2050615,62.5534953 C33.3798308,64.8407438 34.8753821,65.9687774 36.6148821,65.9687774 C37.1137026,65.9687774 37.5242282,65.8779844 37.9784462,65.6954815 L38.1122538,63.5705597 C37.7463308,63.87412 37.4250103,64.0557059 36.9134462,64.0557059 C35.9931769,64.0557059 35.6299846,63.3064348 35.5271256,62.550744 L33.2050615,62.5534953 Z M38.4599718,62.5534953 C38.6374718,64.8407438 40.1312026,65.9687774 41.8697923,65.9687774 C42.3695231,65.9687774 42.7791385,65.8779844 43.2351769,65.6954815 L43.3671641,63.5705597 C43.001241,63.87412 42.6799205,64.0557059 42.1692667,64.0557059 C41.2489974,64.0557059 40.8876256,63.3064348 40.7829462,62.550744 L38.4599718,62.5534953 Z M43.9415359,65.8367149 L46.2053436,65.8367149 L46.2053436,62.5534953 L43.9415359,62.5534953 L43.9415359,65.8367149 Z" id="Fill-35" fill="#AF231C"></path>
                <path d="M7.28441795,62.5534953 C7.65034103,62.1573079 7.85423846,61.5951254 7.85423846,60.8229268 C7.85423846,58.8282333 6.33411026,58.2458746 4.36067436,58.2458746 L2.29712308,58.2458746 L2.29712308,62.5534953 L7.28441795,62.5534953 Z M10.0033538,62.5534953 L10.1908667,61.4869075 C10.2791615,61.0136837 10.3355974,60.5303718 10.4020462,60.058065 L10.4229821,60.058065 C10.4794179,60.5303718 10.5231103,61.0136837 10.5904692,61.4869075 L10.7370205,62.5534953 L12.8388026,62.5534953 L11.8329692,58.2458746 L9.07034103,58.2458746 L7.93161026,62.5534953 L10.0033538,62.5534953 Z M15.6605974,62.5534953 C15.6542256,62.4443604 15.6514949,62.3453135 15.6460333,62.2627745 C15.6460333,61.6877525 15.5577385,59.9470959 16.6008923,59.9470959 C17.0004949,59.9470959 17.2216872,60.4194026 17.2435333,60.7229628 L19.4299692,59.9883654 C18.9411615,58.8905962 17.9316872,58.1147292 16.5781359,58.1147292 C14.1268154,58.1147292 13.3385333,60.1983814 13.3385333,62.0821057 C13.3385333,62.2380128 13.3449051,62.3957541 13.3558282,62.5516611 L15.6605974,62.5534953 Z M19.5910846,62.5534953 C19.6102,62.2866191 19.6174821,62.0252455 19.6174821,61.7702916 L19.606559,61.4465551 L16.4570718,61.4465551 L16.4570718,62.5534953 L19.5910846,62.5534953 Z M20.146341,62.5534953 L22.4092385,62.5534953 L22.4092385,58.2458746 L20.146341,58.2458746 L20.146341,62.5534953 Z M24.4600462,62.5534953 L26.7220333,62.5534953 L26.7220333,58.2458746 L24.4600462,58.2458746 L24.4600462,62.5534953 Z M29.8505846,62.5534953 L30.0371872,61.4869075 C30.1273026,61.0136837 30.1828282,60.5303718 30.2492769,60.058065 L30.2702128,60.058065 C30.3257385,60.5303718 30.3712513,61.0136837 30.4377,61.4869075 L30.5851615,62.5534953 L32.6878538,62.5534953 L31.6802,58.2458746 L28.9184821,58.2458746 L27.7797513,62.5534953 L29.8505846,62.5534953 Z M35.5269436,62.5534953 C35.5050974,62.3801634 35.4941744,62.2049972 35.4941744,62.0417533 C35.4941744,61.2062748 35.7836359,60.0287178 36.9578667,60.0287178 C37.4248282,60.0287178 37.6906231,60.1892104 38.0119436,60.4707602 L38.0119436,58.295398 C37.6460205,58.1660868 37.257341,58.1147292 36.8586487,58.1147292 C35.7599692,58.1147292 33.1875846,58.6897512 33.1875846,62.0921938 C33.1875846,62.2499351 33.1939564,62.4058422 33.2048795,62.5544124 L35.5269436,62.5534953 Z M40.7827641,62.5534953 C40.7609179,62.3801634 40.7499949,62.2049972 40.7499949,62.0417533 C40.7499949,61.2062748 41.0385462,60.0287178 42.2136872,60.0287178 C42.6797385,60.0287178 42.9464436,60.1892104 43.2677641,60.4707602 L43.2677641,58.295398 C42.9027513,58.1660868 42.5131615,58.1147292 42.1144692,58.1147292 C41.0167,58.1147292 38.4434051,58.6897512 38.4434051,62.0921938 C38.4434051,62.2499351 38.4479564,62.4058422 38.4607,62.5544124 L40.7827641,62.5534953 Z M43.9422641,62.5534953 L46.2060718,62.5534953 L46.2060718,58.2458746 L43.9422641,58.2458746 L43.9422641,62.5534953 Z M5.56949487,60.7926625 C5.56949487,61.3566793 5.18172564,61.6703276 4.56002051,61.6400633 L4.56002051,59.8865672 L4.72568718,59.8773962 C5.28003333,59.8773962 5.56949487,60.3093505 5.56949487,60.7926625 L5.56949487,60.7926625 Z" id="Fill-37" fill="#AF231C"></path>
                <path d="M23.3025641,36.445755 C22.6426282,36.1770446 18.3662436,34.2520508 17.9684615,33.8393556 C17.6589744,33.0423953 17.3767949,27.6149949 17.3767949,27.6149949 C16.4701795,28.2753072 16.0305256,28.8925158 15.7246795,29.9783627 C15.5253333,30.6808617 15.5016667,31.1256554 15.6081667,31.8510818 C14.9181923,31.9501287 14.5276923,32.0913621 13.9169103,32.4297722 C12.9311026,32.9736128 12.5269487,33.568811 11.9025128,34.5115902 C11.2680641,35.4690431 11.0022692,36.1045937 10.752859,37.2262075 C10.6882308,36.6484342 10.7000641,36.3109413 10.7828974,35.7359193 C11.0432308,33.9521589 11.7887308,32.9039131 13.2132821,31.8143978 C13.7612564,31.3971171 14.1153462,31.2063602 14.7534359,30.948655 C14.6778846,30.6405092 14.6551282,30.4598404 14.6323718,30.1425237 C14.5568205,29.1236251 14.6715128,28.4770693 15.1430256,27.570057 C15.5954231,26.6969773 16.0296154,26.2393442 16.8752436,25.7450271 C16.3145256,25.8459081 15.9895641,25.9843903 15.5353462,26.3301372 C14.768,26.9143301 14.5823077,27.5553833 14.302859,28.4816548 C14.0980513,29.1584749 14.0470769,29.5730043 14.0743846,30.281923 C13.3935128,30.4084828 13.0157564,30.5671412 12.4131667,30.9092197 C11.2535,31.5704491 10.724641,32.2674454 10.1275128,33.4679299 C9.62232051,34.482243 9.46302564,35.1590631 9.44208974,36.2935164 C9.25730769,35.3507371 9.27187179,34.7683783 9.47394872,33.8283504 C9.81438462,32.2527718 10.3805641,31.2989874 11.6576538,30.3259438 C12.2884615,29.8453832 12.7071795,29.6280303 13.4636026,29.3923355 C13.3343462,28.7934689 13.3033974,28.4367169 13.3552821,27.8268451 C13.4617821,26.5484071 13.7876538,25.7523639 14.6487564,24.8059162 C15.1812564,24.2226403 15.5599231,23.9291682 16.2799359,23.6109343 C15.7783846,23.6402816 15.4880128,23.726489 15.0347051,23.9465931 C14.0743846,24.4133972 13.7512436,25.0893003 13.2615256,26.0449189 C12.7454103,27.0491439 12.6052308,27.7360521 12.6025,28.8686712 C11.9926282,28.9411221 11.6421795,29.0447545 11.0951154,29.3272214 C10.1375256,29.8215385 9.72244872,30.3809698 9.15444872,31.2980703 C8.35615385,32.5875135 8.11402564,33.5715623 8.24874359,35.084778 C7.97202564,33.888879 7.99842308,33.1194317 8.32702564,31.9382064 C8.6765641,30.6872814 9.05067949,29.9279222 10.0328462,29.086024 C10.6399872,28.5651109 11.0541538,28.3257477 11.8078462,28.0689596 C11.640359,27.1316829 11.6703974,26.5465729 11.9225385,25.6276382 C12.2966538,24.2657441 12.7963846,23.4201774 13.9715256,22.6479789 C14.6715128,22.1875944 15.1493974,21.9995889 15.9759103,21.8932052 C14.9582436,21.8189201 14.3092308,21.9720758 13.4262821,22.4893205 C12.314859,23.1349592 11.8742949,23.8934013 11.3845769,25.0865489 C11.0141026,25.99081 10.9030513,26.5713346 10.9203462,27.5489636 C10.4861538,27.6626841 10.2412949,27.7516428 9.84078205,27.9589075 C8.70660256,28.5440176 8.11857692,29.1538894 7.54329487,30.3011821 C6.99441026,31.3916145 6.86060256,32.1757354 7.00533333,33.3890593 C6.6594359,32.3719949 6.6239359,31.6832524 6.86151282,30.6331724 C7.14369231,29.3849987 7.54966667,28.6017949 8.57097436,27.8369332 C9.04066667,27.4829324 9.34651282,27.3196885 9.90541026,27.141771 C9.80073077,25.2901452 10.1630128,24.0520596 11.3081154,22.5984554 C12.2647949,21.3860487 13.060359,20.7202337 14.5504487,20.3433055 C15.4452308,20.1167816 16.006859,20.1039422 16.9134744,20.2717716 C16.9617179,20.2827768 17.2029359,22.2004339 17.256641,22.2536257 C17.256641,22.2536257 17.5260769,21.2007944 17.6362179,20.8257003 C17.7081282,20.9119077 22.3622692,22.3792684 22.4187051,22.4287919 C22.3322308,22.6525644 21.7878974,23.9841942 21.7806154,24.0942463 C21.7105256,24.3923039 22.0500513,24.4436615 22.2921795,24.3244385 C22.8665513,24.1905418 22.6426282,24.7371337 22.5670769,24.9434813 C22.5188333,25.2030207 22.1802179,25.4781508 21.9508333,25.7211825 C21.7014231,26.036665 22.2748846,26.0403334 22.5333974,25.9513747 C22.9339103,25.8156438 23.1605641,25.7431929 23.2825385,25.616633 C23.7003462,25.5111665 23.7504103,25.7248509 23.6830513,25.7936334 C23.6830513,25.7936334 23.4582179,26.209997 23.7322051,26.4154275 C23.8905897,26.4988836 24.2155513,26.5484071 24.3630128,26.5997647 C25.0420641,26.9069933 24.8754872,27.5361242 24.7580641,27.5682227 C24.6315385,28.0689596 20.799359,31.1797643 20.7538462,31.1999405 C20.7538462,31.1999405 20.4743974,31.5576097 20.4935128,31.6594078 C20.7274487,31.6126357 22.8683718,30.5240375 23.7267436,30.1828761 C24.924641,30.9092197 27.3650385,32.5801767 28.6057179,33.7659875 C29.3657821,34.3841132 31.0242692,36.2861796 31.4411667,36.9309012 C31.9381667,37.6398198 32.4661154,38.3184741 32.8511538,39.0970924 C33.6913205,40.5479453 34.3949487,42.973676 34.4522949,43.4386459 C34.5506026,43.9402999 35.1777692,47.1794986 35.1959744,47.2427786 C35.1959744,47.2427786 30.9623718,45.5617334 30.1167436,45.3526345 C28.8196282,44.9445249 25.8658462,44.4336999 25.3697564,44.5584256 C23.9060641,42.6260949 21.8443333,39.5528913 19.9974231,38.0094113 C19.6469744,37.7241931 18.1996667,36.5943253 17.7481795,36.7263878 C17.7481795,36.7263878 19.383,37.8984421 19.9865,38.5128994 C21.4501923,40.0380375 22.609859,41.9080053 22.9967179,43.9760668 C23.0795513,44.5584256 23.0376795,44.7253378 23.1623846,44.9766234 C22.112859,45.503039 19.5914487,46.6549172 18.9160385,46.9474722 C18.7075897,46.6971038 18.6657179,46.7383733 18.4873077,46.1486777 C15.6782564,41.5778491 11.0568846,44.0531032 10.1402564,47.9966351 C9.26276923,47.6793184 9.16173077,47.977376 8.47448718,47.1584053 C8.06942308,46.6833473 7.80817949,46.6971038 7.60064103,46.151429 C6.68401282,43.3405162 9.84897436,35.7891111 19.1818333,35.668971 C19.5240897,35.7716862 19.769859,35.75151 20.1885769,35.8991632 C22.6062179,36.289848 24.6442821,38.2845414 27.2266795,37.9323749 C28.0522821,37.7241931 28.9943974,36.9758391 29.0107821,35.9743654 C28.9843846,35.6653026 28.9434231,35.3103847 28.6312051,35.1874932 C28.474641,35.3259754 28.7267821,35.4296078 28.7322436,35.5699241 C28.8132564,36.2118944 28.5274359,36.856616 27.9958462,37.2252904 C27.1529487,37.9277894 25.7566154,37.6957629 24.8800385,37.2445495 C24.8800385,37.2445495 23.6002179,36.6071647 23.3025641,36.445755" id="Fill-39" fill="#FEFEFE"></path>
                <path d="M18.6649897,22.200709 C18.7815026,22.3703726 18.7514641,22.6583421 18.8534128,22.8335083 C19.0764256,22.8426793 19.3276564,22.8197518 19.4059385,23.0389388 C19.4869513,23.4956548 19.2475538,23.7203444 18.9681051,23.9395314 C18.7769513,24.0734281 18.7105026,24.0789307 18.4929513,24.1018582 C18.3454897,23.5139968 18.2890538,22.9362235 18.2016692,22.1851183 C18.2462718,21.8943974 18.6322205,22.036548 18.6649897,22.200709" id="Fill-41" fill="#AF231C"></path>
                <path d="M18.8324769,35.2053767 C18.8324769,35.2053767 23.3710154,37.7228174 24.661759,38.9379755 C25.4946436,39.5258369 28.8671436,42.9658806 30.9070282,41.2866697 C31.8819128,40.486041 31.7344513,39.2415357 31.2820538,38.0584762 C30.8451308,36.6525612 27.4089128,33.5683524 27.4089128,33.5683524 C27.4089128,33.5683524 31.1573487,36.4636385 31.8227462,38.2675751 C32.2696821,39.4533859 32.4480923,40.659373 31.4486308,41.4966857 C29.1001692,43.4693688 25.868759,40.0733458 25.0367846,39.4845674 C23.7451308,38.2675751 18.9162205,35.3319366 18.9162205,35.3319366 L18.8324769,35.2053767 Z" id="Fill-43" fill="#AF231C"></path>
                <path d="M42.4913154,43.3968261 C42.7407256,38.5939711 35.6625718,37.3338751 34.9953538,37.3338751 C35.6006744,38.0803949 36.5782897,39.3487448 37.8280718,40.8601263 C37.0352385,41.4030498 36.4126231,41.7396256 35.6197897,42.2834662 C38.4106359,42.2834662 39.7004692,43.3335462 40.1601487,44.719285 C40.3021487,45.3438304 40.3239949,45.5740226 40.3440205,46.0151479 C40.3440205,46.0151479 41.2806744,45.1567419 42.4913154,43.3968261" id="Fill-45" fill="#FEFEFE"></path>
                <path d="M43.4465385,41.3162004 C42.9877692,43.0165046 42.0720513,44.7580783 40.6356667,45.8384227 C38.3654872,47.458022 36.8899615,47.7285667 33.8742821,47.3351306 C33.0277436,47.1480421 32.3468718,46.9077618 31.4165897,46.581274 C28.7176795,45.275323 25.5854872,44.1858077 22.4232564,44.8286951 C18.8104487,45.6742617 15.9768205,48.6043976 12.1391795,48.7236206 C8.82402564,48.7318746 5.99221795,46.152071 5.45152564,43.6758998 C5.49339744,44.3472173 6.23434615,49.2812177 6.49012821,51.0209573 C7.40584615,52.2526232 9.60138462,53.9345854 12.1391795,53.9272725 C15.9768205,53.8061913 18.8104487,50.8742212 22.4232564,50.0314059 C25.5854872,49.3903527 28.7176795,50.4761996 31.4165897,51.7821506 C32.3468718,52.1095555 33.0277436,52.3470845 33.8742821,52.5378414 C36.8899615,52.9303604 38.3654872,52.6607329 40.6356667,51.0429677 C41.0735,50.680713 41.9673718,50.2203286 42.1821923,49.7617783 C42.603641,48.3485266 43.9662949,44.873633 43.9662949,43.5199927 L43.4465385,41.3162004 Z" id="Fill-47" fill="#AF231C"></path>
                <path d="M43.4465385,41.3162004 C42.9877692,43.0165046 42.0720513,44.7580783 40.6356667,45.8384227 C38.3654872,47.458022 36.8899615,47.7285667 33.8742821,47.3351306 C33.0277436,47.1480421 32.3468718,46.9077618 31.4165897,46.581274 C28.7176795,45.275323 25.5854872,44.1858077 22.4232564,44.8286951 C18.8104487,45.6742617 15.9768205,48.6043976 12.1391795,48.7236206 C8.82402564,48.7318746 5.99221795,46.152071 5.45152564,43.6758998 C5.49339744,44.3472173 6.23434615,49.2812177 6.49012821,51.0209573 C7.40584615,52.2526232 9.60138462,53.9345854 12.1391795,53.9272725 C15.9768205,53.8061913 18.8104487,50.8742212 22.4232564,50.0314059 C25.5854872,49.3903527 28.7176795,50.4761996 31.4165897,51.7821506 C32.3468718,52.1095555 33.0277436,52.3470845 33.8742821,52.5378414 C36.8899615,52.9303604 38.3654872,52.6607329 40.6356667,51.0429677 C41.0735,50.680713 41.9673718,50.2203286 42.1821923,49.7617783 C42.603641,48.3485266 43.9662949,44.873633 43.9662949,43.5199927 L43.4465385,41.3162004 Z" id="Stroke-49" stroke="#AF231C" stroke-width="1.464"></path>
                <path d="M42.5088833,43.6453604 C42.2813192,44.1488485 41.3847167,45.3649237 40.6601526,45.8326449 C38.3881526,47.4513272 36.9108064,47.723706 33.8978577,47.3293528 C33.0513192,47.1404302 32.3686269,46.901984 31.4392551,46.5736621 C28.7412551,45.267711 25.6081526,44.1800299 22.4459218,44.8229173 C18.8340244,45.6684839 16.0003962,48.5958686 12.1627551,48.7178429 C8.84760128,48.7260968 6.11774231,45.8555724 6.05766538,44.8669382 C5.99030641,45.3557527 6.25792179,49.2745229 6.51279359,51.0142624 C7.42942179,52.2459283 9.62405,53.9278905 12.1627551,53.9205777 C16.0003962,53.7985794 18.8340244,50.8693606 22.4459218,50.0237939 C25.6081526,49.3827407 28.7412551,50.4704219 31.4392551,51.7763729 C32.3686269,52.1037778 33.0513192,52.3422239 33.8978577,52.5320637 C36.9108064,52.9227484 38.3881526,52.654038 40.6601526,51.0353557 C41.0961654,50.6749353 41.9909474,50.2145508 42.2057679,49.7541664 C42.3241013,48.1153079 42.4069346,45.5153282 42.4915885,44.0057808 L42.5088833,43.6453604 Z" id="Fill-51" fill="#FEFEFE"></path>
                <path d="M17.0478282,48.0326772 L17.0478282,51.5983637 C17.0478282,51.5983637 17.6458667,51.3479953 17.9662769,51.1792488 C17.9662769,50.5923045 17.9644564,47.592469 17.9644564,47.592469 C17.6231103,47.8006508 17.0478282,48.0326772 17.0478282,48.0326772" id="Fill-53" fill="#AF231C"></path>
                <path d="M17.0478282,48.0326772 L17.0478282,51.5983637 C17.0478282,51.5983637 17.6458667,51.3479953 17.9662769,51.1792488 C17.9662769,50.5923045 17.9644564,47.592469 17.9644564,47.592469 C17.6231103,47.8006508 17.0478282,48.0326772 17.0478282,48.0326772 Z" id="Stroke-55" stroke="#AF231C" stroke-width="0.091"></path>
                <path d="M22.080909,45.7543245 C22.080909,46.1119937 22.0290244,46.5476164 22.0290244,46.5476164 C22.0290244,46.5476164 22.790909,46.2293826 23.4553962,46.1862789 C23.2724346,46.5430309 21.7158962,49.4025501 21.7158962,49.4025501 C22.6734859,49.1127464 23.9223577,48.9806839 24.679691,49.0265389 C24.6514731,49.0650571 24.7142808,48.2891902 24.7142808,48.2891902 C24.7142808,48.2891902 23.7985628,48.287356 23.1795885,48.4120816 C23.5473321,47.7838678 24.8753962,45.4535156 24.8753962,45.4535156 C23.8222295,45.3269557 22.4022295,45.5855781 22.080909,45.7543245" id="Fill-57" fill="#AF231C"></path>
                <path d="M22.080909,45.7543245 C22.080909,46.1119937 22.0290244,46.5476164 22.0290244,46.5476164 C22.0290244,46.5476164 22.790909,46.2293826 23.4553962,46.1862789 C23.2724346,46.5430309 21.7158962,49.4025501 21.7158962,49.4025501 C22.6734859,49.1127464 23.9223577,48.9806839 24.679691,49.0265389 C24.6514731,49.0650571 24.7142808,48.2891902 24.7142808,48.2891902 C24.7142808,48.2891902 23.7985628,48.287356 23.1795885,48.4120816 C23.5473321,47.7838678 24.8753962,45.4535156 24.8753962,45.4535156 C23.8222295,45.3269557 22.4022295,45.5855781 22.080909,45.7543245 Z" id="Stroke-59" stroke="#AF231C" stroke-width="0.091"></path>
                <path d="M28.9193923,46.3160486 C28.9166615,46.7250754 28.9193923,47.0928326 28.9193923,47.0928326 C29.3062513,47.2414029 29.5857,47.3459524 30.2101359,47.5972379 C29.7750333,48.4354677 28.7318795,49.8184552 28.7318795,49.8184552 C29.6694436,50.0945024 30.6889308,50.638343 31.2514692,50.8272656 C31.2305333,50.848359 31.2514692,50.0101291 31.2514692,50.0101291 C30.7089564,49.8505537 30.4804821,49.661631 30.0235333,49.5057239 C30.4167641,48.8334893 31.3552385,47.3230249 31.3552385,47.3230249 C30.8973795,47.1570297 29.5583923,46.5985155 28.9193923,46.3160486" id="Fill-61" fill="#AF231C"></path>
                <path d="M28.9193923,46.3160486 C28.9166615,46.7250754 28.9193923,47.0928326 28.9193923,47.0928326 C29.3062513,47.2414029 29.5857,47.3459524 30.2101359,47.5972379 C29.7750333,48.4354677 28.7318795,49.8184552 28.7318795,49.8184552 C29.6694436,50.0945024 30.6889308,50.638343 31.2514692,50.8272656 C31.2305333,50.848359 31.2514692,50.0101291 31.2514692,50.0101291 C30.7089564,49.8505537 30.4804821,49.661631 30.0235333,49.5057239 C30.4167641,48.8334893 31.3552385,47.3230249 31.3552385,47.3230249 C30.8973795,47.1570297 29.5583923,46.5985155 28.9193923,46.3160486 Z" id="Stroke-63" stroke="#AF231C" stroke-width="0.091"></path>
                <path d="M37.3657526,50.4314451 C37.3657526,50.4314451 36.9524962,50.5149012 36.6348167,50.5332432 C36.7249321,50.1755741 36.8214192,49.736283 36.8214192,49.736283 L36.9552269,49.1502558 L37.1363679,49.7161067 L37.3657526,50.4314451 Z M36.465509,48.3257825 C36.2270218,49.070468 35.2120859,51.8667073 35.2120859,51.8667073 C35.4878936,51.8667073 35.9148038,51.9198991 36.2115474,51.8997229 C36.3025731,51.5640641 36.3781244,51.2485816 36.3781244,51.2485816 C36.7112782,51.2256541 37.3612013,51.1220217 37.5450731,51.1027626 C37.6351885,51.3962348 37.750791,51.7300593 37.750791,51.7300593 C38.1895346,51.6475203 38.4626115,51.4696028 38.6692397,51.4081571 C38.531791,50.9450213 37.4176372,48.221233 37.4176372,48.221233 C37.0963167,48.2835959 36.7995731,48.357881 36.465509,48.3257825 L36.465509,48.3257825 Z" id="Fill-65" fill="#AF231C"></path>
                <path d="M37.3657526,50.4314451 C37.3657526,50.4314451 36.9524962,50.5149012 36.6348167,50.5332432 C36.7249321,50.1755741 36.8214192,49.736283 36.8214192,49.736283 L36.9552269,49.1502558 L37.1363679,49.7161067 L37.3657526,50.4314451 Z M36.465509,48.3257825 C36.2270218,49.070468 35.2120859,51.8667073 35.2120859,51.8667073 C35.4878936,51.8667073 35.9148038,51.9198991 36.2115474,51.8997229 C36.3025731,51.5640641 36.3781244,51.2485816 36.3781244,51.2485816 C36.7112782,51.2256541 37.3612013,51.1220217 37.5450731,51.1027626 C37.6351885,51.3962348 37.750791,51.7300593 37.750791,51.7300593 C38.1895346,51.6475203 38.4626115,51.4696028 38.6692397,51.4081571 C38.531791,50.9450213 37.4176372,48.221233 37.4176372,48.221233 C37.0963167,48.2835959 36.7995731,48.357881 36.465509,48.3257825 Z" id="Stroke-67" stroke="#AF231C" stroke-width="0.091"></path>
                <path d="M11.3252282,50.1008304 L11.4981769,50.1301776 C11.9523949,50.0944107 11.9915359,50.2475665 12.0215744,50.590562 C12.0516128,50.9528167 11.7639718,51.1417394 11.3252282,51.0353557 L11.3252282,50.1008304 Z M11.3252282,53.0658161 L11.3361513,51.7075904 L11.5937538,51.7571138 C12.3665615,51.8442383 12.9090744,51.4994086 12.9382026,50.6006501 C12.9809846,49.2965333 11.8276897,49.5900054 11.3816641,49.5001296 C10.9192538,49.4267616 10.4086,49.3011188 10.4086,49.3011188 L10.4086,52.8383752 L10.8464333,52.9924481 L11.3252282,53.0658161 Z" id="Fill-69" fill="#AF231C"></path>
                <path d="M11.3252282,50.1008304 L11.4981769,50.1301776 C11.9523949,50.0944107 11.9915359,50.2475665 12.0215744,50.590562 C12.0516128,50.9528167 11.7639718,51.1417394 11.3252282,51.0353557 L11.3252282,50.1008304 Z M11.3252282,53.0658161 L11.3361513,51.7075904 L11.5937538,51.7571138 C12.3665615,51.8442383 12.9090744,51.4994086 12.9382026,50.6006501 C12.9809846,49.2965333 11.8276897,49.5900054 11.3816641,49.5001296 C10.9192538,49.4267616 10.4086,49.3011188 10.4086,49.3011188 L10.4086,52.8383752 L10.8464333,52.9924481 L11.3252282,53.0658161 Z" id="Stroke-71" stroke="#AF231C" stroke-width="0.091"></path>
                <path d="M53.3521308,10.7552037 C51.0946949,7.67466335 47.034041,4.13832404 40.8388359,2.09227295 C31.4449897,-1.16618492 22.3478872,0.524948294 20.5219128,5.87164388 C18.6959385,11.2183395 24.8292462,18.1947225 34.2230923,21.4540975 C43.6160282,24.7143896 52.7122205,23.0223393 54.5400154,17.6774779 C55.5767974,14.5428286 53.9592718,11.5824283 53.3521308,10.7552037" id="Fill-73" fill="#FEFEFE"></path>
                <path d="M53.3521308,10.7552037 C51.0946949,7.67466335 47.034041,4.13832404 40.8388359,2.09227295 C31.4449897,-1.16618492 22.3478872,0.524948294 20.5219128,5.87164388 C18.6959385,11.2183395 24.8292462,18.1947225 34.2230923,21.4540975 C43.6160282,24.7143896 52.7122205,23.0223393 54.5400154,17.6774779 C55.5767974,14.5428286 53.9592718,11.5824283 53.3521308,10.7552037 Z" id="Stroke-75" stroke="#FEFEFE" stroke-width="1.493"></path>
                <path d="M28.8795231,7.07185323 C30.4169462,6.30240596 32.1782923,5.7787416 34.0925615,5.71271037 C35.8011128,5.65309884 37.569741,5.91080407 39.2910359,6.3959502 C43.3981128,7.38091608 47.2466769,10.3055494 48.6011385,12.3415124 C47.5816513,9.9011081 43.5027923,6.83615842 39.9801,5.70078807 C38.0257795,4.99278652 36.0141128,4.55166121 34.0952923,4.44894596 C31.4682923,4.30587829 28.8449333,4.71765639 26.9579718,5.40639882 C28.8085231,4.50030359 31.4327923,3.96746823 34.0943821,3.94087232 C35.9312795,3.92161321 37.8655744,4.09127679 39.7671,4.64520546 C45.1676513,6.05295464 49.1309077,9.36827274 51.1580487,12.3415124 C49.4504077,9.17201324 45.5945615,5.62283453 40.3341897,3.86108458 C38.2415103,3.09255441 36.1251641,2.76514955 34.0925615,2.63308708 C30.6973051,2.41298298 27.5323436,2.84677149 25.0864846,3.57586634 C27.4932026,2.51019562 30.6317667,1.86822531 34.0952923,2.07182161 C36.0195744,2.18370787 38.0712923,2.4579209 40.1029846,3.0787979 C46.5703564,4.83321105 51.6586897,8.53737974 53.7395359,12.3387611 C51.9263051,8.39981467 47.1055872,4.48104448 40.7729333,2.28367181 C31.5638692,-0.911506131 22.6460872,0.746611471 20.8547026,5.9869234 C19.0642282,11.2281524 25.0773821,18.0678875 34.2864462,21.2639826 C43.4964205,24.4600776 52.4142026,22.80196 54.2055872,17.5598139 C54.3202795,17.2204867 54.4040231,16.875657 54.4568179,16.5244075 C54.3776256,16.8710715 54.2947923,17.2929377 54.1537026,17.6212596 C52.0528308,22.491063 43.9069462,23.5897493 35.3559974,20.2322446 L35.3423436,20.2212394 C42.7891513,22.6763173 50.0420744,20.9861012 51.6031641,16.4207751 C51.6341128,16.328148 51.6641513,16.2346038 51.691459,16.1410595 C51.655959,16.2336867 51.6159077,16.3308993 51.5776769,16.4207751 C49.6279077,20.8311112 42.3349333,21.9050358 35.1302538,18.8052363 C35.4288179,18.8951121 35.7319333,18.9785683 36.0405103,19.0565218 C42.2530103,20.6174268 47.9402923,19.2032579 49.0016513,15.9016963 C47.6044077,19.0748638 41.7960615,19.8663215 35.7774462,17.6597778 C35.4797923,17.55156 35.1866897,17.4369224 34.8990487,17.3167823 C35.5089205,17.5185444 36.1533821,17.6185083 36.8224205,17.7478195 C40.9677282,18.5401943 44.9491897,17.6937106 46.1261513,15.6284004 C44.8263051,17.286518 41.0642154,17.6001663 37.1510231,16.2428577 C32.7654077,14.7204709 29.8243692,11.6876198 30.5826128,9.46640249 C31.3417667,7.24610231 35.5116513,6.68208554 39.8981769,8.20447228 C42.6890231,9.17293035 44.8936641,10.7512602 45.9340872,12.3442637 C44.9755872,10.4880524 42.7855103,8.56030725 39.8080615,7.38091608 C37.9019846,6.62614241 35.9349205,6.29323495 34.0943821,6.29415205 C32.1082026,6.29506915 30.3341128,6.72243796 28.8795231,7.07185323" id="Fill-77" fill="#AF231C"></path>
                <path d="M34.2803474,12.3914026 C34.2803474,12.3914026 36.4968218,8.60744621 36.5168474,8.67439454 C36.5195782,8.63037372 37.1276295,8.93576817 37.0875782,9.28976894 C37.1485654,9.73547976 36.5905782,10.4058802 36.5905782,10.4058802" id="Stroke-79" stroke="#AF231C" stroke-width="0.408" stroke-linecap="round"></path>
                <path d="M31.9072179,20.0904609 C31.9163205,18.8358675 31.9408974,17.5776056 31.9763974,17.3593357 C31.9763974,17.3593357 32.1985,15.4150828 32.6117564,14.494314 C33.1096667,13.161767 33.9225256,12.1905576 34.9292692,11.2780427 C35.8404359,10.5902174 37.0920385,9.67311693 37.8448205,9.24299682 C39.2502564,10.4214709 37.2140128,11.6503855 36.8872308,11.947526 C36.352,12.5904134 36.2855513,12.4730246 35.9132564,13.0297045 C35.7293846,13.3571094 35.5491538,13.6083949 35.6866026,13.773473 C35.8923205,13.8275819 36.1881538,13.5460321 36.5021923,13.417638 C37.1493846,13.0939016 37.3842308,13.0141138 37.8639359,13.0902332 C38.9225641,13.3195083 38.7150256,14.4356195 38.6039744,14.3732567 C37.8730385,14.6520552 37.1903462,15.0546623 36.21,15.9029802 C35.8395256,16.3367687 35.4945385,16.6641736 35.3425256,17.1805012 C35.0812821,17.8894198 34.5269359,19.3659515 34.5460513,19.6795999 C34.5242051,19.8621029 34.5087308,20.2206891 34.4987179,20.6737367 L31.9072179,20.0904609 Z" id="Fill-81" fill="#AF231C"></path>
                <path d="M27.6445782,32.2589164 C27.8948987,32.2589164 28.2062064,32.1296052 28.5393603,32.0048796 C29.1647064,31.7114074 30.3817192,30.8016438 30.8796295,29.8139266 C31.1463346,29.3507909 31.5368346,27.1827654 31.55595,26.3858051 C31.6378731,25.8905709 31.7871551,22.4725376 31.7871551,22.4725376 C31.7516551,21.3683486 32.1530782,17.8265067 32.2122449,17.4477442 C32.2122449,17.4477442 32.4534628,15.8730828 32.8576167,14.9706559 C33.2799756,13.6500313 34.2366551,12.3743446 35.2170013,11.5865553 C36.0243987,10.8932274 37.0730141,10.3613091 37.772091,9.71658749 C38.5640141,10.5447292 36.8754885,11.3600315 36.5405141,11.7626386 C36.0116551,12.341329 35.6639372,12.5972 35.4081551,13.1282011 C35.2215526,13.4968755 35.1387192,13.8710525 35.3116679,14.1746127 C35.7385782,14.3653696 36.0125654,14.0040321 36.1527449,14.0682291 C36.7098218,13.8096068 37.1212577,13.4519376 37.7866551,13.4913729 C38.4065397,13.6683733 38.2445141,14.0342964 38.2727321,14.0654778 C37.5454372,14.2874161 36.8654756,14.761557 35.9051551,15.59245 C35.3444372,16.1051092 35.0513346,16.7645044 34.85745,17.3010082 C34.6016679,17.9970874 34.3804756,18.851825 34.3194885,19.6882206 C34.2211808,20.5429582 34.9766936,25.5879278 34.9766936,25.5879278 C35.1068603,26.5618884 35.1560141,29.9689166 35.1314372,30.009269 C35.1196038,30.9694732 34.9466551,32.4450878 34.7837192,32.8706224 C34.4487449,34.053682 34.0236551,35.1230211 33.362809,36.0703858 C32.8912962,36.8279108 32.9413603,36.7912268 32.4543731,37.3534094 C32.0593218,36.5335216 30.6420526,34.994627 30.2688474,34.5443307 C29.919309,34.1233816 28.0514628,32.4689324 27.6445782,32.2589164" id="Fill-83" fill="#FEFEFE"></path>
            </g>
        </g>
    </g>
</svg>