<svg version="1.1" xmlns="http://www.w3.org/2000/svg" xmlns:xlink="http://www.w3.org/1999/xlink" width="343.88326" height="343.88326" viewBox="0,0,343.88326,343.88326"><g transform="translate(-68.00836,-8.10836)"><g data-paper-data="{&quot;isPaintingLayer&quot;:true}" fill-rule="nonzero" stroke-dasharray="" stroke-dashoffset="0" style="mix-blend-mode: normal"><path d="M111.85,255.45c-0.4,-4.6 -0.4,-11 1.6,-16.2c2.8,-7.4 10.8,-13.1 21.6,-13.1c10.8,0 25.9,11.9 25.9,26.2c0,14.3 -6.8,18.9 -14.6,22c-5.3,2.1 -11.6,2.1 -15.8,1.8c-2.7,-0.2 -2.9,-1.3 -0.8,-2.7c3,-1.9 7.2,-4.9 9.6,-8.7c3.1,-4.9 3.2,-11.9 -1,-16.2c-3.8,-3.8 -10.7,-3.2 -15.7,0.5c-3.3,2.4 -6,6.1 -7.8,8.8c-0.2,0.3 -0.8,1.2 -1.5,1.1c-1,-0.1 -1.4,-2.5 -1.5,-3.6z" fill="none" stroke="#ffffff" stroke-width="20" stroke-linecap="butt" stroke-linejoin="miter" stroke-miterlimit="10"/><path d="M367.85,255.45c-0.3,3.6 -1.7,4.6 -3,2.4c-1.8,-2.7 -4.5,-6.4 -7.8,-8.8c-5,-3.7 -11.9,-4.3 -15.7,-0.5c-4.2,4.3 -4.2,11.3 -1,16.2c2.4,3.7 6.6,6.8 9.6,8.7c2.1,1.3 1.9,2.4 -0.8,2.7c-4.2,0.3 -10.5,0.3 -15.8,-1.8c-7.8,-3.1 -14.6,-11.3 -14.6,-22c0,-10.7 11.6,-26.2 25.9,-26.2c14.3,0 18.8,5.7 21.6,13.1c2,5.2 2,11.6 1.6,16.2z" fill="none" stroke="#ffffff" stroke-width="20" stroke-linecap="butt" stroke-linejoin="miter" stroke-miterlimit="10"/><path d="M111.85,109.65c0.3,-3.6 1.7,-4.6 3,-2.4c1.8,2.7 4.5,6.4 7.8,8.8c5,3.7 11.9,4.3 15.7,0.5c4.2,-4.3 4.2,-11.3 1,-16.2c-2.4,-3.7 -6.6,-6.8 -9.6,-8.7c-2.1,-1.3 -1.9,-2.4 0.8,-2.7c4.2,-0.3 10.5,-0.3 15.8,1.8c7.8,3.1 14.6,11.3 14.6,22c0,10.7 -11.6,26.2 -25.9,26.2c-14.3,0 -18.8,-5.7 -21.6,-13.1c-2,-5.2 -2,-11.6 -1.6,-16.2z" fill="none" stroke="#ffffff" stroke-width="20" stroke-linecap="butt" stroke-linejoin="miter" stroke-miterlimit="10"/><path d="M367.85,109.65c0.4,4.6 0.4,11 -1.6,16.2c-2.8,7.4 -10.8,13.1 -21.6,13.1c-10.8,0 -25.9,-11.9 -25.9,-26.2c0,-14.3 6.8,-18.9 14.6,-22c5.3,-2.1 11.6,-2.1 15.8,-1.8c2.7,0.2 2.9,1.3 0.8,2.7c-3,1.9 -7.2,4.9 -9.6,8.7c-3.1,4.9 -3.2,11.9 1,16.2c3.8,3.8 10.7,3.2 15.7,-0.5c3.3,-2.4 6,-6.1 7.8,-8.8c1.4,-2.1 2.7,-1.2 3,2.4z" fill="none" stroke="#ffffff" stroke-width="20" stroke-linecap="butt" stroke-linejoin="miter" stroke-miterlimit="10"/><g stroke-linecap="butt" stroke-linejoin="miter" stroke-miterlimit="10" font-family="MSReferenceSansSerif, &quot;MS Reference Sans Serif&quot;" font-weight="400" font-size="29.7" text-anchor="start"><text transform="translate(203.15,109.85)" font-size="29.7" xml:space="preserve" fill="#ffffff" fill-rule="nonzero" stroke="none" stroke-width="1" stroke-linecap="butt" stroke-linejoin="miter" stroke-miterlimit="10" stroke-dasharray="" stroke-dashoffset="0" font-family="MSReferenceSansSerif, &quot;MS Reference Sans Serif&quot;" font-weight="400" text-anchor="start" style="mix-blend-mode: normal"><tspan x="0" dy="0">AIDERS</tspan></text><text transform="translate(203.15,109.85)" font-size="29.7" xml:space="preserve" fill="none" fill-rule="nonzero" stroke="#01002e" stroke-width="16" stroke-linecap="butt" stroke-linejoin="miter" stroke-miterlimit="10" stroke-dasharray="" stroke-dashoffset="0" font-family="MSReferenceSansSerif, &quot;MS Reference Sans Serif&quot;" font-weight="400" text-anchor="start" style="mix-blend-mode: normal"><tspan x="0" dy="0">AIDERS</tspan></text></g><g stroke-linecap="butt" stroke-linejoin="miter" stroke-miterlimit="10" font-family="MSReferenceSansSerif, &quot;MS Reference Sans Serif&quot;" font-weight="400" font-size="68.2" text-anchor="start"><text transform="translate(161.05,109.95) scale(0.9,1)" font-size="68.2" xml:space="preserve" fill="#ffffff" fill-rule="nonzero" stroke="none" stroke-width="1" stroke-linecap="butt" stroke-linejoin="miter" stroke-miterlimit="10" stroke-dasharray="" stroke-dashoffset="0" font-family="MSReferenceSansSerif, &quot;MS Reference Sans Serif&quot;" font-weight="400" text-anchor="start" style="mix-blend-mode: normal"><tspan x="0" dy="0">R</tspan></text><text transform="translate(161.05,109.95) scale(0.9,1)" font-size="68.2" xml:space="preserve" fill="none" fill-rule="nonzero" stroke="#01002e" stroke-width="16" stroke-linecap="butt" stroke-linejoin="miter" stroke-miterlimit="10" stroke-dasharray="" stroke-dashoffset="0" font-family="MSReferenceSansSerif, &quot;MS Reference Sans Serif&quot;" font-weight="400" text-anchor="start" style="mix-blend-mode: normal"><tspan x="0" dy="0">R</tspan></text></g><g stroke-linecap="butt" stroke-linejoin="miter" stroke-miterlimit="10" font-family="MSReferenceSansSerif, &quot;MS Reference Sans Serif&quot;" font-weight="400" font-size="28.2" text-anchor="start"><text transform="translate(201.15,82.95)" font-size="28.2" xml:space="preserve" fill="#ffffff" fill-rule="nonzero" stroke="none" stroke-width="1" stroke-linecap="butt" stroke-linejoin="miter" stroke-miterlimit="10" stroke-dasharray="" stroke-dashoffset="0" font-family="MSReferenceSansSerif, &quot;MS Reference Sans Serif&quot;" font-weight="400" text-anchor="start" style="mix-blend-mode: normal"><tspan x="0" dy="0">OBO</tspan></text><text transform="translate(201.15,82.95)" font-size="28.2" xml:space="preserve" fill="none" fill-rule="nonzero" stroke="#01002e" stroke-width="16" stroke-linecap="butt" stroke-linejoin="miter" stroke-miterlimit="10" stroke-dasharray="" stroke-dashoffset="0" font-family="MSReferenceSansSerif, &quot;MS Reference Sans Serif&quot;" font-weight="400" text-anchor="start" style="mix-blend-mode: normal"><tspan x="0" dy="0">OBO</tspan></text></g><g stroke-linecap="butt" stroke-linejoin="miter" stroke-miterlimit="10" font-family="MSReferenceSansSerif, &quot;MS Reference Sans Serif&quot;" font-weight="400" font-size="28.2" text-anchor="start"><text transform="translate(201.15,82.95)" font-size="28.2" xml:space="preserve" fill="#ffffff" fill-rule="nonzero" stroke="none" stroke-width="1" stroke-linecap="butt" stroke-linejoin="miter" stroke-miterlimit="10" stroke-dasharray="" stroke-dashoffset="0" font-family="MSReferenceSansSerif, &quot;MS Reference Sans Serif&quot;" font-weight="400" text-anchor="start" style="mix-blend-mode: normal"><tspan x="0" dy="0">OBO</tspan></text><text transform="translate(201.15,82.95)" font-size="28.2" xml:space="preserve" fill="none" fill-rule="nonzero" stroke="#ffffff" stroke-width="16" stroke-linecap="butt" stroke-linejoin="miter" stroke-miterlimit="10" stroke-dasharray="" stroke-dashoffset="0" font-family="MSReferenceSansSerif, &quot;MS Reference Sans Serif&quot;" font-weight="400" text-anchor="start" style="mix-blend-mode: normal"><tspan x="0" dy="0">OBO</tspan></text></g><g stroke-linecap="butt" stroke-linejoin="miter" stroke-miterlimit="10" font-family="MSReferenceSansSerif, &quot;MS Reference Sans Serif&quot;" font-weight="400" font-size="29.7" text-anchor="start"><text transform="translate(203.15,109.85)" font-size="29.7" xml:space="preserve" fill="#ffffff" fill-rule="nonzero" stroke="none" stroke-width="1" stroke-linecap="butt" stroke-linejoin="miter" stroke-miterlimit="10" stroke-dasharray="" stroke-dashoffset="0" font-family="MSReferenceSansSerif, &quot;MS Reference Sans Serif&quot;" font-weight="400" text-anchor="start" style="mix-blend-mode: normal"><tspan x="0" dy="0">AIDERS</tspan></text><text transform="translate(203.15,109.85)" font-size="29.7" xml:space="preserve" fill="none" fill-rule="nonzero" stroke="#ffffff" stroke-width="18" stroke-linecap="butt" stroke-linejoin="miter" stroke-miterlimit="10" stroke-dasharray="" stroke-dashoffset="0" font-family="MSReferenceSansSerif, &quot;MS Reference Sans Serif&quot;" font-weight="400" text-anchor="start" style="mix-blend-mode: normal"><tspan x="0" dy="0">AIDERS</tspan></text></g><g stroke-linecap="butt" stroke-linejoin="miter" stroke-miterlimit="10" font-family="MSReferenceSansSerif, &quot;MS Reference Sans Serif&quot;" font-weight="400" font-size="68.2" text-anchor="start"><text transform="translate(161.05,109.95) scale(0.9,1)" font-size="68.2" xml:space="preserve" fill="#ffffff" fill-rule="nonzero" stroke="none" stroke-width="1" stroke-linecap="butt" stroke-linejoin="miter" stroke-miterlimit="10" stroke-dasharray="" stroke-dashoffset="0" font-family="MSReferenceSansSerif, &quot;MS Reference Sans Serif&quot;" font-weight="400" text-anchor="start" style="mix-blend-mode: normal"><tspan x="0" dy="0">R</tspan></text><text transform="translate(161.05,109.95) scale(0.9,1)" font-size="68.2" xml:space="preserve" fill="none" fill-rule="nonzero" stroke="#ffffff" stroke-width="20" stroke-linecap="butt" stroke-linejoin="miter" stroke-miterlimit="10" stroke-dasharray="" stroke-dashoffset="0" font-family="MSReferenceSansSerif, &quot;MS Reference Sans Serif&quot;" font-weight="400" text-anchor="start" style="mix-blend-mode: normal"><tspan x="0" dy="0">R</tspan></text></g><g fill="#01002e" stroke="#ffffff" stroke-width="28" stroke-linecap="round" stroke-linejoin="round" stroke-miterlimit="10"><path d="M257.45,290.34999h12"/><path d="M257.45,273.55h12"/><path d="M271.84999,287.95v-12"/><path d="M255.05,275.95v12"/><path d="M257.45,256.75h12"/><path d="M271.84999,271.15v-12"/><path d="M255.05,271.15v-12"/><path d="M287.34999,287.95v-12"/><path d="M287.34999,259.15v12"/><path d="M193.05,290.34999h12"/><path d="M205.05,273.55h-12"/><path d="M207.45,275.95v12"/><path d="M193.05,256.75h12"/><path d="M207.45,271.15v-12"/><path d="M225.45,290.34999h12"/><path d="M225.45,273.55h12"/><path d="M239.85,287.95v-12"/><path d="M223.05,275.95v12"/><path d="M225.45,256.75h12"/><path d="M223.05,259.15v12"/></g><g fill="#01002e" stroke="#ffffff" stroke-width="16" stroke-linecap="butt" stroke-linejoin="miter" stroke-miterlimit="10"><path d="M395.05,292.34999c-16.3,-0.4 -32.6,-0.7 -48.9,-1.1l3.2,-9.8h40.5c2.6,0 5.2,3.7 5.2,5.5z"/><path d="M391.05,314.05h-39.9c-0.9,-2.9 -1.9,-5.7 -2.8,-8.6c13.2,-0.7 26.5,-1.5 39.7,-2.2l2.9,10.8z"/><path d="M384.75,335.25h-38.4c-2.4,0 -4.8,-3.5 -4.8,-5.3v-5.6h43.2v10.8z"/><path d="M384.15,335.25v-32h5.5c1.8,0 5.3,2.2 5.3,5.3v21.4c0,2.5 -3.5,5.4 -5.3,5.4h-5.5z"/><path d="M341.35,308.55v-21.4c0,-3.3 3.9,-5.7 5.8,-5.7h5v32.5h-5.2c-1.8,0 -5.6,-3 -5.6,-5.5z"/><path d="M394.95,292.34999v5.6h-10.8v-5.6z"/><path d="M352.35,319.05v6.3h-10.8v-6.3z"/></g><g fill="none" stroke="#ffffff" stroke-width="16" stroke-linecap="butt" stroke-linejoin="miter" stroke-miterlimit="10"><path d="M85.15,335.25v-54h10.8v54z"/><path d="M127.65,335.25v-54h10.8v54z"/><path d="M138.45,313.65h-53.2v-10.8h53.2z"/></g><g fill="#ffffff" stroke="#01002e" stroke-width="9" stroke-linecap="butt" stroke-linejoin="miter" stroke-miterlimit="10"><path d="M85.15,335.05v-54h10.8v54z"/><path d="M127.65,335.05v-54h10.8v54z"/><path d="M138.45,313.55h-53.1v-10.8h53.2v10.8z"/></g><g stroke="none" stroke-width="1" stroke-linecap="butt" stroke-linejoin="miter" stroke-miterlimit="10"><path d="M85.15,335.05v-54h10.8v54z" fill="#ffffff"/><path d="M127.65,335.05v-54h10.8v54z" fill="#ffffff"/><path d="M85.15,317.95v-19.7h10.9v19.7z" fill="#dc003f"/><path d="M127.65,317.95v-19.7h10.9v19.7z" fill="#dc003f"/><path d="M138.55,313.55h-53.4v-10.8h53.4z" fill="#ffffff"/></g><g fill="none" stroke="#ffffff" stroke-width="16" stroke-linecap="butt" stroke-linejoin="miter" stroke-miterlimit="10"><path d="M341.25,78.85v-54h10.8v54z"/><path d="M383.75,78.85v-54h10.8v54z"/><path d="M394.55,57.25h-53.2v-10.8h53.2z"/></g><g fill="#01002e" stroke="#ffffff" stroke-width="16" stroke-linecap="butt" stroke-linejoin="miter" stroke-miterlimit="10"><path d="M122.95,76.95c-11.2,-14.5 -22.5,-29 -33.7,-43.5c4.2,-2.1 8.3,-4.2 12.5,-6.4c11,14.7 21.9,29.5 32.9,44.2c-3.9,1.9 -7.7,3.8 -11.6,5.6z"/><path d="M85.15,78.85v-54h10.8v54z"/><path d="M127.65,78.75v-54h10.8v54z"/></g><g stroke-width="34" stroke-linecap="butt" stroke-linejoin="miter" stroke-miterlimit="10"><path d="M239.95,327.95l-147.9,-147.9l147.9,-147.9l147.9,147.9z" fill="none" stroke="#01002e"/><path d="M239.95,327.95l-147.9,-147.9l147.9,-147.9l147.9,147.9z" fill="#01002e" stroke="#ffffff"/></g><g stroke-linecap="butt" stroke-linejoin="miter" stroke-miterlimit="10"><path d="M92.05,179.95l147.9,-147.9l147.9,147.9l-147.9,147.9z" fill="none" stroke="#01002e" stroke-width="22.5"/><path d="M92.05,179.95l147.9,-147.9l147.9,147.9l-147.9,147.9z" fill="#01002e" stroke="#ffffff" stroke-width="12.5"/></g><g fill="#ffffff" stroke="#01002e" stroke-width="9" stroke-linecap="butt" stroke-linejoin="miter" stroke-miterlimit="10"><path d="M124.05,77.25l-35.9,-44.8l10.9,-6.2l35.9,44.9z"/><path d="M84.95,78.85v-54h10.8v54z"/><path d="M127.45,78.65v-54h10.8v54z"/></g><g stroke="none" stroke-width="1" stroke-linecap="butt" stroke-linejoin="miter" stroke-miterlimit="10"><path d="M127.35,78.65l-39.2,-46.3l7.7,-7.7l39.2,46.4l-7.7,7.7z" fill="#ffffff"/><path d="M100.25,46.75l-12.1,-14.4l7.7,-7.7l4.6,5.4v16.7z" fill="#dc003f"/><path d="M84.95,78.65v-54h10.8v54z" fill="#ffffff"/><path d="M122.85,56.55l12.6,15l-8.2,7.1l-4.4,-5.2z" fill="#dc003f"/><path d="M127.45,78.65v-54h10.8v54z" fill="#ffffff"/></g><g fill="none" stroke-linecap="round" stroke-linejoin="miter" stroke-miterlimit="10"><path d="M257.45,290.34999h12" stroke="#01002e" stroke-width="17.5"/><path d="M257.45,273.55h12" stroke="#01002e" stroke-width="17.5"/><path d="M271.84999,287.95v-12" stroke="#01002e" stroke-width="17.5"/><path d="M255.05,275.95v12" stroke="#01002e" stroke-width="17.5"/><path d="M257.45,256.75h12" stroke="#01002e" stroke-width="17.5"/><path d="M271.84999,271.15v-12" stroke="#01002e" stroke-width="17.5"/><path d="M255.05,271.15v-12" stroke="#01002e" stroke-width="17.5"/><path d="M287.34999,287.95v-12" stroke="#01002e" stroke-width="17.5"/><path d="M287.34999,259.15v12" stroke="#01002e" stroke-width="17.5"/><path d="M193.05,290.34999h12" stroke="#01002e" stroke-width="17.5"/><path d="M205.05,273.55h-12" stroke="#01002e" stroke-width="17.5"/><path d="M207.45,275.95v12" stroke="#01002e" stroke-width="17.5"/><path d="M193.05,256.75h12" stroke="#01002e" stroke-width="17.5"/><path d="M207.45,271.15v-12" stroke="#01002e" stroke-width="17.5"/><path d="M225.45,290.34999h12" stroke="#01002e" stroke-width="17.5"/><path d="M225.45,273.55h12" stroke="#01002e" stroke-width="17.5"/><path d="M239.85,287.95v-12" stroke="#01002e" stroke-width="17.5"/><path d="M223.05,275.95v12" stroke="#01002e" stroke-width="17.5"/><path d="M225.45,256.75h12" stroke="#01002e" stroke-width="17.5"/><path d="M223.05,259.15v12" stroke="#01002e" stroke-width="17.5"/><path d="M257.45,290.34999h12" stroke="#ffffff" stroke-width="3.5"/><path d="M257.45,273.55h12" stroke="#ffffff" stroke-width="3.5"/><path d="M271.84999,275.95v12" stroke="#ffffff" stroke-width="3.5"/><path d="M255.05,275.95v12" stroke="#ffffff" stroke-width="3.5"/><path d="M269.45,256.75h-12" stroke="#ffffff" stroke-width="3.5"/><path d="M271.84999,271.15v-12" stroke="#ffffff" stroke-width="3.5"/><path d="M255.05,271.15v-12" stroke="#ffffff" stroke-width="3.5"/><path d="M287.34999,287.95v-12" stroke="#ffffff" stroke-width="3.5"/><path d="M287.34999,259.15v12" stroke="#ffffff" stroke-width="3.5"/><path d="M205.05,290.34999h-12" stroke="#ffffff" stroke-width="3.5"/><path d="M205.05,273.55h-12" stroke="#ffffff" stroke-width="3.5"/><path d="M207.45,275.95v12" stroke="#ffffff" stroke-width="3.5"/><path d="M205.05,256.75h-12" stroke="#ffffff" stroke-width="3.5"/><path d="M207.45,271.15v-12" stroke="#ffffff" stroke-width="3.5"/><path d="M225.45,290.34999h12" stroke="#ffffff" stroke-width="3.5"/><path d="M225.45,273.55h12" stroke="#ffffff" stroke-width="3.5"/><path d="M239.85,287.95v-12" stroke="#ffffff" stroke-width="3.5"/><path d="M223.05,275.95v12" stroke="#ffffff" stroke-width="3.5"/><path d="M225.45,256.75h12" stroke="#ffffff" stroke-width="3.5"/><path d="M223.05,259.15v12" stroke="#ffffff" stroke-width="3.5"/></g><g fill="#ffffff" stroke="#01002e" stroke-width="9" stroke-linecap="butt" stroke-linejoin="miter" stroke-miterlimit="10"><path d="M394.95,292.15h-50.3l4.6,-10.8h40.5c2.6,0 5.2,3.7 5.2,5.5v5.4z"/><path d="M390.95,313.75h-39.9l-5.6,-10.8h42.6z"/><path d="M384.65,334.95h-38.4c-2.4,0 -4.8,-3.5 -4.8,-5.3v-5.6h43.2v10.8z"/><path d="M384.15,334.95v-32h5.5c1.8,0 5.3,2.2 5.3,5.3v21.4c0,2.5 -3.5,5.4 -5.3,5.4h-5.5z"/><path d="M341.25,308.34999v-21.4c0,-3.3 3.9,-5.7 5.8,-5.7h5v32.5h-5.2c-1.8,0 -5.6,-3 -5.6,-5.5z"/><path d="M394.95,292.15v5.6h-10.8v-5.6z"/><path d="M352.25,318.84999v6.3h-10.8v-6.3z"/></g><g fill="#ffffff" stroke="none" stroke-width="1" stroke-linecap="butt" stroke-linejoin="miter" stroke-miterlimit="10"><path d="M394.95,292.15h-50.3l4.6,-10.8h40.5c2.6,0 5.2,3.7 5.2,5.5v5.4z"/><path d="M390.95,313.75h-39.9l-5.6,-10.8h42.6z"/><path d="M390.15,334.95h-43.2c-2.7,0 -5.5,-3.5 -5.5,-5.3v-5.6h48.7v10.8z"/><path d="M384.15,334.95v-32h5.5c1.8,0 5.3,2.2 5.3,5.3v21.4c0,2.5 -3.5,5.4 -5.3,5.4h-5.5z"/><path d="M341.25,308.34999v-21.4c0,-3.3 3.9,-5.7 5.8,-5.7h5v32.5h-5.2c-1.8,0 -5.6,-3 -5.6,-5.5z"/><path d="M394.95,288.55v9.1h-10.8v-9.1z"/><path d="M352.25,318.84999v9.1h-10.8v-9.1z"/></g><g fill="#ffffff" stroke="#01002e" stroke-width="9" stroke-linecap="butt" stroke-linejoin="miter" stroke-miterlimit="10"><path d="M341.25,78.65v-54h10.8v54z"/><path d="M383.75,78.65v-54h10.8v54z"/><path d="M394.55,57.05h-53.2v-10.8h53.2z"/></g><g stroke="none" stroke-width="1" stroke-linecap="butt" stroke-linejoin="miter" stroke-miterlimit="10"><path d="M341.25,78.65v-54h10.8v54z" fill="#ffffff"/><path d="M383.75,78.65v-54h10.8v54z" fill="#ffffff"/><path d="M341.15,61.55v-19.7h10.9v19.7z" fill="#dc003f"/><path d="M383.75,61.55v-19.7h10.9v19.7z" fill="#dc003f"/><path d="M394.55,57.15h-53.4v-10.8h53.4z" fill="#ffffff"/></g><path d="M119.65,185.15c-3.3,0 -5.9,-2.7 -5.9,-5.9c0,-3.2 2.7,-5.9 5.9,-5.9c3.2,0 5.9,2.7 5.9,5.9c0,3.2 -2.7,5.9 -5.9,5.9z" fill="#dc003f" stroke="#01002e" stroke-width="12.5" stroke-linecap="butt" stroke-linejoin="miter" stroke-miterlimit="10"/><path d="M126.75,179.45l10.8,-6.4v13.8z" fill="#ffffff" stroke="#01002e" stroke-width="8" stroke-linecap="butt" stroke-linejoin="miter" stroke-miterlimit="10"/><path d="M126.75,179.45l10.8,-6.4v13.8z" fill="#ffffff" stroke="none" stroke-width="1" stroke-linecap="butt" stroke-linejoin="miter" stroke-miterlimit="10"/><path d="M142.14999,193.95h-3.2c-0.5,0 -1.1,-0.4 -1.1,-1.3v-25.3c0,-0.7 0.5,-1.2 1.1,-1.2h2.9c0.6,0 1.1,0.6 1.1,1.3v25.3c0,0.8 -0.4,1.1 -0.9,1.1v0z" fill="#ffffff" stroke="#01002e" stroke-width="8" stroke-linecap="butt" stroke-linejoin="miter" stroke-miterlimit="10"/><path d="M142.14999,193.95h-3.2c-0.5,0 -1.1,-0.4 -1.1,-1.3v-25.3c0,-0.7 0.5,-1.2 1.1,-1.2h2.9c0.6,0 1.1,0.6 1.1,1.3v25.3c0,0.8 -0.4,1.1 -0.9,1.1v0z" fill="#ffffff" stroke="none" stroke-width="1" stroke-linecap="butt" stroke-linejoin="miter" stroke-miterlimit="10"/><path d="M153.45,201.85h-5c-0.8,0 -1.8,-0.6 -1.8,-2v-39.8c0,-1 0.9,-1.9 1.8,-1.9h4.6c0.9,0 1.8,1 1.8,2v39.9c0,1.3 -0.6,1.8 -1.4,1.8z" fill="#ffffff" stroke="#01002e" stroke-width="8" stroke-linecap="butt" stroke-linejoin="miter" stroke-miterlimit="10"/><path d="M153.45,201.85h-5c-0.8,0 -1.8,-0.6 -1.8,-2v-39.8c0,-1 0.9,-1.9 1.8,-1.9h4.6c0.9,0 1.8,1 1.8,2v39.9c0,1.3 -0.6,1.8 -1.4,1.8z" fill="#ffffff" stroke="none" stroke-width="1" stroke-linecap="butt" stroke-linejoin="miter" stroke-miterlimit="10"/><path d="M119.65,185.85c-3.6,0 -6.6,-2.9 -6.6,-6.6c0,-3.7 2.9,-6.6 6.6,-6.6c3.7,0 6.6,2.9 6.6,6.6c0,3.7 -2.9,6.6 -6.6,6.6z" fill="#dc003f" stroke="#ffffff" stroke-width="4" stroke-linecap="butt" stroke-linejoin="miter" stroke-miterlimit="10"/><path d="M354.35,179.25c0,-3.3 2.7,-5.9 5.9,-5.9c3.2,0 5.9,2.7 5.9,5.9c0,3.2 -2.7,5.9 -5.9,5.9c-3.2,0 -5.9,-2.7 -5.9,-5.9z" fill="#dc003f" stroke="#01002e" stroke-width="12.5" stroke-linecap="butt" stroke-linejoin="miter" stroke-miterlimit="10"/><g fill="#ffffff" stroke="#01002e" stroke-width="10" stroke-linecap="butt" stroke-linejoin="miter" stroke-miterlimit="10"><path d="M197.15,150.85l-22.6,22.6l-44,-44l22.6,-22.6z"/><path d="M112.05,109.25c0.3,-3.6 1.7,-4.6 3,-2.4c1.8,2.7 4.5,6.4 7.8,8.8c5,3.7 11.9,4.3 15.7,0.5c4.2,-4.3 4.2,-11.3 1,-16.2c-2.4,-3.7 -6.6,-6.8 -9.6,-8.7c-2.1,-1.3 -1.9,-2.4 0.8,-2.7c4.2,-0.3 10.5,-0.3 15.8,1.8c7.8,3.1 14.6,11.3 14.6,22c0,10.7 -11.6,26.2 -25.9,26.2c-14.3,0 -18.8,-5.7 -21.6,-13.1c-2,-5.2 -2,-11.6 -1.6,-16.2z"/></g><path d="M197.15,150.85l-22.6,22.6l-44,-44l22.6,-22.6z" fill="#ffffff" stroke="none" stroke-width="1" stroke-linecap="butt" stroke-linejoin="miter" stroke-miterlimit="10"/><path d="M165.14999,118.65c0,0 -0.8,7.7 -7.7,15c-6.5,6.8 -14.8,7.7 -14.8,7.7l-11.1,-10.9l23,-23l10.7,11.1z" fill="#dc003f" stroke="none" stroke-width="1" stroke-linecap="butt" stroke-linejoin="miter" stroke-miterlimit="10"/><g fill="#ffffff" stroke="#01002e" stroke-width="10" stroke-linecap="butt" stroke-linejoin="miter" stroke-miterlimit="10"><path d="M326.84999,106.85l22.6,22.6l-44,44l-22.6,-22.6z"/><path d="M367.95,109.25c0.4,4.6 0.4,11 -1.6,16.2c-2.8,7.4 -10.8,13.1 -21.6,13.1c-10.8,0 -25.9,-11.9 -25.9,-26.2c0,-14.3 6.8,-18.9 14.6,-22c5.3,-2.1 11.6,-2.1 15.8,-1.8c2.7,0.2 2.9,1.3 0.8,2.7c-3,1.9 -7.2,4.9 -9.6,8.7c-3.1,4.9 -3.2,11.9 1,16.2c3.8,3.8 10.7,3.2 15.7,-0.5c3.3,-2.4 6,-6.1 7.8,-8.8c1.4,-2.1 2.7,-1.2 3,2.4z"/></g><path d="M326.84999,106.85l22.6,22.6l-44,44l-22.6,-22.6z" fill="#ffffff" stroke="none" stroke-width="1" stroke-linecap="butt" stroke-linejoin="miter" stroke-miterlimit="10"/><path d="M325.55,107.65l23,23l-11.1,10.9c0,0 -8.4,-0.9 -14.8,-7.7c-7,-7.3 -7.7,-15 -7.7,-15l10.7,-11.1z" fill="#dc003f" stroke="none" stroke-width="1" stroke-linecap="butt" stroke-linejoin="miter" stroke-miterlimit="10"/><g fill="#ffffff" stroke="#01002e" stroke-width="10" stroke-linecap="butt" stroke-linejoin="miter" stroke-miterlimit="10"><path d="M153.14999,257.34999l-22.6,-22.6l44,-44l22.6,22.6z"/><path d="M112.05,255.05c-0.4,-4.6 -0.4,-11 1.6,-16.2c2.8,-7.4 10.8,-13.1 21.6,-13.1c10.8,0 25.9,11.9 25.9,26.2c0,14.3 -6.8,18.9 -14.6,22c-5.3,2.1 -11.6,2.1 -15.8,1.8c-2.7,-0.2 -2.9,-1.3 -0.8,-2.7c3,-1.9 7.2,-4.9 9.6,-8.7c3.1,-4.9 3.2,-11.9 -1,-16.2c-3.8,-3.8 -10.7,-3.2 -15.7,0.5c-3.3,2.4 -6,6.1 -7.8,8.8c-1.4,2.1 -2.7,1.2 -3,-2.4z"/></g><path d="M153.14999,257.34999l-22.6,-22.6l44,-44l22.6,22.6z" fill="#ffffff" stroke="none" stroke-width="1" stroke-linecap="butt" stroke-linejoin="miter" stroke-miterlimit="10"/><path d="M154.45,256.65l-23,-23l11.1,-10.9c0,0 8.4,0.9 14.8,7.7c7,7.3 7.7,15 7.7,15l-10.7,11.1z" fill="#dc003f" stroke="none" stroke-width="1" stroke-linecap="butt" stroke-linejoin="miter" stroke-miterlimit="10"/><path d="M112.05,255.05c-0.4,-4.6 -0.4,-11 1.6,-16.2c2.8,-7.4 10.8,-13.1 21.6,-13.1c10.8,0 25.9,11.9 25.9,26.2c0,14.3 -6.8,18.9 -14.6,22c-5.3,2.1 -11.6,2.1 -15.8,1.8c-2.7,-0.2 -2.9,-1.3 -0.8,-2.7c3,-1.9 7.2,-4.9 9.6,-8.7c3.1,-4.9 3.2,-11.9 -1,-16.2c-3.8,-3.8 -10.7,-3.2 -15.7,0.5c-3.3,2.4 -6,6.1 -7.8,8.8c-1.4,2.1 -2.7,1.2 -3,-2.4z" fill="#ffffff" stroke="none" stroke-width="1" stroke-linecap="butt" stroke-linejoin="miter" stroke-miterlimit="10"/><g fill="#ffffff" stroke="#01002e" stroke-width="10" stroke-linecap="butt" stroke-linejoin="miter" stroke-miterlimit="10"><path d="M282.84999,213.35l22.6,-22.6l44,44l-22.6,22.6z"/><path d="M367.95,255.05c-0.3,3.6 -1.7,4.6 -3,2.4c-1.8,-2.7 -4.5,-6.4 -7.8,-8.8c-5,-3.7 -11.9,-4.3 -15.7,-0.5c-4.2,4.3 -4.2,11.3 -1,16.2c2.4,3.7 6.6,6.8 9.6,8.7c2.1,1.3 1.9,2.4 -0.8,2.7c-4.2,0.3 -10.5,0.3 -15.8,-1.8c-7.8,-3.1 -14.6,-11.3 -14.6,-22c0,-10.7 11.6,-26.2 25.9,-26.2c14.3,0 18.8,5.7 21.6,13.1c2,5.2 2,11.6 1.6,16.2z"/></g><path d="M282.84999,213.35l22.6,-22.6l44,44l-22.6,22.6z" fill="#ffffff" stroke="none" stroke-width="1" stroke-linecap="butt" stroke-linejoin="miter" stroke-miterlimit="10"/><path d="M314.84999,245.55c0,0 0.8,-7.7 7.7,-15c6.5,-6.8 14.8,-7.7 14.8,-7.7l11.1,10.9l-23,23l-10.7,-11.1z" fill="#dc003f" stroke="none" stroke-width="1" stroke-linecap="butt" stroke-linejoin="miter" stroke-miterlimit="10"/><path d="M367.95,255.05c-0.3,3.6 -1.7,4.6 -3,2.4c-1.8,-2.7 -4.5,-6.4 -7.8,-8.8c-5,-3.7 -11.9,-4.3 -15.7,-0.5c-4.2,4.3 -4.2,11.3 -1,16.2c2.4,3.7 6.6,6.8 9.6,8.7c2.1,1.3 1.9,2.4 -0.8,2.7c-4.2,0.3 -10.5,0.3 -15.8,-1.8c-7.8,-3.1 -14.6,-11.3 -14.6,-22c0,-10.7 11.6,-26.2 25.9,-26.2c14.3,0 18.8,5.7 21.6,13.1c2,5.2 2,11.6 1.6,16.2z" fill="#ffffff" stroke="none" stroke-width="1" stroke-linecap="butt" stroke-linejoin="miter" stroke-miterlimit="10"/><path d="M159.25,200.75v-36.2c0,-11 14.6,-27.4 27.1,-27.4h106.5c16.4,0 27.8,15.7 27.8,26.4v38c0,14.2 -14.9,26.4 -27.6,26.4h-106.5c-16.1,0 -27.3,-12.7 -27.3,-27.2z" fill="#dc003f" stroke="#01002e" stroke-width="10" stroke-linecap="butt" stroke-linejoin="miter" stroke-miterlimit="10"/><path d="M159.25,200.75v-36.2c0,-11 14.6,-27.4 27.1,-27.4h106.5c16.4,0 27.8,15.7 27.8,26.4v38c0,14.2 -14.9,26.4 -27.6,26.4h-106.5c-16.1,0 -27.3,-12.7 -27.3,-27.2z" fill="#dc003f" stroke="none" stroke-width="1" stroke-linecap="butt" stroke-linejoin="miter" stroke-miterlimit="10"/><path d="M201.95,210.45v-11.6c0,-2.3 2,-5.5 5.3,-5.5h65.5c2.7,0 5.2,2.3 5.2,5.1v9.9c0,2.6 -2.9,6.3 -6,6.3h-65.5c-2.9,0 -4.6,-1.8 -4.6,-4.3v0z" fill="#ffffff" stroke="#01002e" stroke-width="5" stroke-linecap="butt" stroke-linejoin="miter" stroke-miterlimit="10"/><path d="M231.95,194.75v16.8" fill="none" stroke="#01002e" stroke-width="5" stroke-linecap="round" stroke-linejoin="miter" stroke-miterlimit="10"/><path d="M248.05,194.85v16.8" fill="none" stroke="#01002e" stroke-width="5" stroke-linecap="round" stroke-linejoin="miter" stroke-miterlimit="10"/><path d="M263.95,211.65v-16.8" fill="none" stroke="#01002e" stroke-width="5" stroke-linecap="round" stroke-linejoin="miter" stroke-miterlimit="10"/><path d="M215.75,194.75v16.8" fill="none" stroke="#01002e" stroke-width="5" stroke-linecap="round" stroke-linejoin="miter" stroke-miterlimit="10"/><path d="M159.25,170.15v-3c0,0 -0.1,-3.3 0.2,-5.4c0.6,-3.4 2.7,-6.9 2.7,-6.9c0,0 31.2,0.4 42.7,-2.6c9.1,-2.4 14.8,-15.1 14.8,-15.1l18,-0.2c0,0 -8.5,25 -20.5,30.1c-14.1,6.1 -58,3.2 -58,3.2v0z" fill="#01002e" stroke="none" stroke-width="1" stroke-linecap="butt" stroke-linejoin="miter" stroke-miterlimit="10"/><path d="M261.34999,164.05c0,-9.1 7.4,-16.5 16.5,-16.5c9.1,0 16.5,7.4 16.5,16.5c0,9.1 -7.4,16.5 -16.5,16.5c-9.1,0 -16.5,-7.4 -16.5,-16.5z" fill="#01002e" stroke="#ffffff" stroke-width="5" stroke-linecap="butt" stroke-linejoin="miter" stroke-miterlimit="10"/><g fill="#01002e" stroke="#dc003f" stroke-linecap="butt" stroke-linejoin="miter" stroke-miterlimit="10"><path d="M186.05,164.05c0,-9.1 7.4,-16.5 16.5,-16.5c9.1,0 16.5,7.4 16.5,16.5c0,9.1 -7.4,16.5 -16.5,16.5c-9.1,0 -16.5,-7.4 -16.5,-16.5z" stroke-width="9"/><path d="M183.65,166.64999c-0.2,-9.5 14.9,-21.3 22.5,-21.1c11.1,0.3 16.6,8.5 16.6,19.6c0,11.1 -9,20.1 -20.1,20.1c-11.1,0 -18.7,-7.6 -18.9,-18.7v0z" stroke-width="4"/></g><path d="M186.05,164.05c0,-9.1 7.4,-16.5 16.5,-16.5c9.1,0 16.5,7.4 16.5,16.5c0,9.1 -7.4,16.5 -16.5,16.5c-9.1,0 -16.5,-7.4 -16.5,-16.5z" fill="#ffffff" stroke="#01002e" stroke-width="5" stroke-linecap="butt" stroke-linejoin="miter" stroke-miterlimit="10"/><path d="M183.65,166.64999c-0.2,-9.5 14.9,-21.3 22.5,-21.1c11.1,0.3 16.6,8.5 16.6,19.6c0,11.1 -9,20.1 -20.1,20.1c-11.1,0 -18.7,-7.6 -18.9,-18.7v0z" fill="#01002e" stroke="none" stroke-width="1" stroke-linecap="butt" stroke-linejoin="miter" stroke-miterlimit="10"/><path d="M188.55,177.75l27.4,-27.4" fill="none" stroke="#ffffff" stroke-width="2.5" stroke-linecap="round" stroke-linejoin="miter" stroke-miterlimit="10"/><g stroke-linecap="butt" stroke-linejoin="miter" font-family="TimesNewRomanPSMT, &quot;Times New Roman&quot;" font-weight="400" font-size="13.1" text-anchor="start"><text transform="translate(192.25,162.95)" font-size="13.1" xml:space="preserve" fill="#ffffff" fill-rule="nonzero" stroke="none" stroke-width="1" stroke-linecap="butt" stroke-linejoin="miter" stroke-miterlimit="10" stroke-dasharray="" stroke-dashoffset="0" font-family="TimesNewRomanPSMT, &quot;Times New Roman&quot;" font-weight="400" text-anchor="start" style="mix-blend-mode: normal"><tspan x="0" dy="0">N</tspan></text><text transform="translate(192.25,162.95)" font-size="13.1" xml:space="preserve" fill="none" fill-rule="nonzero" stroke="#ffffff" stroke-width="0.3" stroke-linecap="butt" stroke-linejoin="miter" stroke-miterlimit="3.3" stroke-dasharray="" stroke-dashoffset="0" font-family="TimesNewRomanPSMT, &quot;Times New Roman&quot;" font-weight="400" text-anchor="start" style="mix-blend-mode: normal"><tspan x="0" dy="0">N</tspan></text></g><g stroke-linecap="butt" stroke-linejoin="miter" font-family="TimesNewRomanPSMT, &quot;Times New Roman&quot;" font-weight="400" font-size="13.1" text-anchor="start"><text transform="translate(204.55,175.65)" font-size="13.1" xml:space="preserve" fill="#ffffff" fill-rule="nonzero" stroke="none" stroke-width="1" stroke-linecap="butt" stroke-linejoin="miter" stroke-miterlimit="10" stroke-dasharray="" stroke-dashoffset="0" font-family="TimesNewRomanPSMT, &quot;Times New Roman&quot;" font-weight="400" text-anchor="start" style="mix-blend-mode: normal"><tspan x="0" dy="0">H</tspan></text><text transform="translate(204.55,175.65)" font-size="13.1" xml:space="preserve" fill="none" fill-rule="nonzero" stroke="#ffffff" stroke-width="0.3" stroke-linecap="butt" stroke-linejoin="miter" stroke-miterlimit="3.3" stroke-dasharray="" stroke-dashoffset="0" font-family="TimesNewRomanPSMT, &quot;Times New Roman&quot;" font-weight="400" text-anchor="start" style="mix-blend-mode: normal"><tspan x="0" dy="0">H</tspan></text></g><path d="M342.35,186.85v-13.8l10.8,6.4z" fill="#ffffff" stroke="#01002e" stroke-width="8" stroke-linecap="butt" stroke-linejoin="miter" stroke-miterlimit="10"/><path d="M342.35,186.85v-13.8l10.8,6.4z" fill="#ffffff" stroke="none" stroke-width="1" stroke-linecap="butt" stroke-linejoin="miter" stroke-miterlimit="10"/><path d="M336.85,192.75v-25.3c0,-0.7 0.6,-1.3 1.1,-1.3h2.9c0.6,0 1.1,0.5 1.1,1.2v25.3c0,0.9 -0.6,1.3 -1.1,1.3h-3.2c-0.5,0 -0.9,-0.3 -0.9,-1.1v0z" fill="#ffffff" stroke="#01002e" stroke-width="8" stroke-linecap="butt" stroke-linejoin="miter" stroke-miterlimit="10"/><path d="M336.85,192.75v-25.3c0,-0.7 0.6,-1.3 1.1,-1.3h2.9c0.6,0 1.1,0.5 1.1,1.2v25.3c0,0.9 -0.6,1.3 -1.1,1.3h-3.2c-0.5,0 -0.9,-0.3 -0.9,-1.1v0z" fill="#ffffff" stroke="none" stroke-width="1" stroke-linecap="butt" stroke-linejoin="miter" stroke-miterlimit="10"/><path d="M325.05,200.15v-39.9c0,-1 0.9,-2 1.8,-2h4.6c0.9,0 1.8,0.8 1.8,1.9v39.8c0,1.4 -1,2 -1.8,2h-5c-0.8,0 -1.4,-0.5 -1.4,-1.8z" fill="#ffffff" stroke="#01002e" stroke-width="8" stroke-linecap="butt" stroke-linejoin="miter" stroke-miterlimit="10"/><path d="M325.05,200.15v-39.9c0,-1 0.9,-2 1.8,-2h4.6c0.9,0 1.8,0.8 1.8,1.9v39.8c0,1.4 -1,2 -1.8,2h-5c-0.8,0 -1.4,-0.5 -1.4,-1.8z" fill="#ffffff" stroke="none" stroke-width="1" stroke-linecap="butt" stroke-linejoin="miter" stroke-miterlimit="10"/><path d="M353.75,179.25c0,-3.6 2.9,-6.6 6.6,-6.6c3.7,0 6.6,2.9 6.6,6.6c0,3.7 -2.9,6.6 -6.6,6.6c-3.7,0 -6.6,-2.9 -6.6,-6.6z" fill="#dc003f" stroke="#ffffff" stroke-width="4" stroke-linecap="butt" stroke-linejoin="miter" stroke-miterlimit="10"/><path d="M180.05,100.05" fill="#01002e" stroke="none" stroke-width="1" stroke-linecap="butt" stroke-linejoin="miter" stroke-miterlimit="10"/><g stroke-linecap="butt" stroke-linejoin="miter" stroke-miterlimit="10"><g font-family="MSReferenceSansSerif, &quot;MS Reference Sans Serif&quot;" font-weight="400" font-size="29.7" text-anchor="start"><text transform="translate(202.95,109.85)" font-size="29.7" xml:space="preserve" fill="#ffffff" fill-rule="nonzero" stroke="none" stroke-width="1" stroke-linecap="butt" stroke-linejoin="miter" stroke-miterlimit="10" stroke-dasharray="" stroke-dashoffset="0" font-family="MSReferenceSansSerif, &quot;MS Reference Sans Serif&quot;" font-weight="400" text-anchor="start" style="mix-blend-mode: normal"><tspan x="0" dy="0">AIDERS</tspan></text><text transform="translate(202.95,109.85)" font-size="29.7" xml:space="preserve" fill="none" fill-rule="nonzero" stroke="#01002e" stroke-width="10" stroke-linecap="butt" stroke-linejoin="miter" stroke-miterlimit="10" stroke-dasharray="" stroke-dashoffset="0" font-family="MSReferenceSansSerif, &quot;MS Reference Sans Serif&quot;" font-weight="400" text-anchor="start" style="mix-blend-mode: normal"><tspan x="0" dy="0">AIDERS</tspan></text></g><g font-family="MSReferenceSansSerif, &quot;MS Reference Sans Serif&quot;" font-weight="400" font-size="68.2" text-anchor="start"><text transform="translate(160.75,109.95) scale(0.9,1)" font-size="68.2" xml:space="preserve" fill="#ffffff" fill-rule="nonzero" stroke="none" stroke-width="1" stroke-linecap="butt" stroke-linejoin="miter" stroke-miterlimit="10" stroke-dasharray="" stroke-dashoffset="0" font-family="MSReferenceSansSerif, &quot;MS Reference Sans Serif&quot;" font-weight="400" text-anchor="start" style="mix-blend-mode: normal"><tspan x="0" dy="0">R</tspan></text><text transform="translate(160.75,109.95) scale(0.9,1)" font-size="68.2" xml:space="preserve" fill="none" fill-rule="nonzero" stroke="#01002e" stroke-width="12" stroke-linecap="butt" stroke-linejoin="miter" stroke-miterlimit="10" stroke-dasharray="" stroke-dashoffset="0" font-family="MSReferenceSansSerif, &quot;MS Reference Sans Serif&quot;" font-weight="400" text-anchor="start" style="mix-blend-mode: normal"><tspan x="0" dy="0">R</tspan></text></g><g font-family="MSReferenceSansSerif, &quot;MS Reference Sans Serif&quot;" font-weight="400" font-size="28.2" text-anchor="start"><text transform="translate(200.85,82.95)" font-size="28.2" xml:space="preserve" fill="#ffffff" fill-rule="nonzero" stroke="none" stroke-width="1" stroke-linecap="butt" stroke-linejoin="miter" stroke-miterlimit="10" stroke-dasharray="" stroke-dashoffset="0" font-family="MSReferenceSansSerif, &quot;MS Reference Sans Serif&quot;" font-weight="400" text-anchor="start" style="mix-blend-mode: normal"><tspan x="0" dy="0">OBO</tspan></text><text transform="translate(200.85,82.95)" font-size="28.2" xml:space="preserve" fill="none" fill-rule="nonzero" stroke="#01002e" stroke-width="10" stroke-linecap="butt" stroke-linejoin="miter" stroke-miterlimit="10" stroke-dasharray="" stroke-dashoffset="0" font-family="MSReferenceSansSerif, &quot;MS Reference Sans Serif&quot;" font-weight="400" text-anchor="start" style="mix-blend-mode: normal"><tspan x="0" dy="0">OBO</tspan></text></g><g font-family="MSReferenceSansSerif, &quot;MS Reference Sans Serif&quot;" font-weight="400" font-size="28.2" text-anchor="start"><text transform="translate(200.85,82.95)" font-size="28.2" xml:space="preserve" fill="#ffffff" fill-rule="nonzero" stroke="none" stroke-width="1" stroke-linecap="butt" stroke-linejoin="miter" stroke-miterlimit="10" stroke-dasharray="" stroke-dashoffset="0" font-family="MSReferenceSansSerif, &quot;MS Reference Sans Serif&quot;" font-weight="400" text-anchor="start" style="mix-blend-mode: normal"><tspan x="0" dy="0">OBO</tspan></text><text transform="translate(200.85,82.95)" font-size="28.2" xml:space="preserve" fill="none" fill-rule="nonzero" stroke="#ffffff" stroke-width="2" stroke-linecap="butt" stroke-linejoin="miter" stroke-miterlimit="10" stroke-dasharray="" stroke-dashoffset="0" font-family="MSReferenceSansSerif, &quot;MS Reference Sans Serif&quot;" font-weight="400" text-anchor="start" style="mix-blend-mode: normal"><tspan x="0" dy="0">OBO</tspan></text></g><g font-family="MSReferenceSansSerif, &quot;MS Reference Sans Serif&quot;" font-weight="400" font-size="29.7" text-anchor="start"><text transform="translate(202.95,109.85)" font-size="29.7" xml:space="preserve" fill="#ffffff" fill-rule="nonzero" stroke="none" stroke-width="1" stroke-linecap="butt" stroke-linejoin="miter" stroke-miterlimit="10" stroke-dasharray="" stroke-dashoffset="0" font-family="MSReferenceSansSerif, &quot;MS Reference Sans Serif&quot;" font-weight="400" text-anchor="start" style="mix-blend-mode: normal"><tspan x="0" dy="0">AIDERS</tspan></text><text transform="translate(202.95,109.85)" font-size="29.7" xml:space="preserve" fill="none" fill-rule="nonzero" stroke="#ffffff" stroke-width="2" stroke-linecap="butt" stroke-linejoin="miter" stroke-miterlimit="10" stroke-dasharray="" stroke-dashoffset="0" font-family="MSReferenceSansSerif, &quot;MS Reference Sans Serif&quot;" font-weight="400" text-anchor="start" style="mix-blend-mode: normal"><tspan x="0" dy="0">AIDERS</tspan></text></g><g font-family="MSReferenceSansSerif, &quot;MS Reference Sans Serif&quot;" font-weight="400" font-size="68.2" text-anchor="start"><text transform="translate(160.75,109.95) scale(0.9,1)" font-size="68.2" xml:space="preserve" fill="#ffffff" fill-rule="nonzero" stroke="none" stroke-width="1" stroke-linecap="butt" stroke-linejoin="miter" stroke-miterlimit="10" stroke-dasharray="" stroke-dashoffset="0" font-family="MSReferenceSansSerif, &quot;MS Reference Sans Serif&quot;" font-weight="400" text-anchor="start" style="mix-blend-mode: normal"><tspan x="0" dy="0">R</tspan></text><text transform="translate(160.75,109.95) scale(0.9,1)" font-size="68.2" xml:space="preserve" fill="none" fill-rule="nonzero" stroke="#ffffff" stroke-width="3" stroke-linecap="butt" stroke-linejoin="miter" stroke-miterlimit="10" stroke-dasharray="" stroke-dashoffset="0" font-family="MSReferenceSansSerif, &quot;MS Reference Sans Serif&quot;" font-weight="400" text-anchor="start" style="mix-blend-mode: normal"><tspan x="0" dy="0">R</tspan></text></g><path d="M174.55,79.95v-10.5l8.11034,3.29687l2.78966,7.20313z" fill="#01002e" stroke="none" stroke-width="1"/></g><path d="M176.22836,105.1851l0.72163,-11.1351l8.62476,11.61442z" fill="#01002e" stroke="none" stroke-width="1" stroke-linecap="butt" stroke-linejoin="miter" stroke-miterlimit="10"/><path d="M214.95,74.55c-0.1,0.2 -2.2,3.2 -4.1,2.8c-1.7,-0.4 -3.1,-3.6 -2.2,-8.1c1.9,-0.4 3.8,-0.8 5.7,-1.2c0.2,2.2 0.4,4.3 0.6,6.5z" fill="#01002e" stroke="none" stroke-width="1" stroke-linecap="butt" stroke-linejoin="miter" stroke-miterlimit="10"/><path d="M203.95,88.45c-0.1,0.3 -1.5,3.4 -5.1,4.3c-3.4,0.8 -6,-1.2 -6.3,-1.4c2.8,-3.4 5.7,-6.8 8.5,-10.2c0.9,2.4 1.9,4.9 2.8,7.3z" fill="#01002e" stroke="none" stroke-width="1" stroke-linecap="butt" stroke-linejoin="miter" stroke-miterlimit="10"/><path d="M112.05,109.25c0.3,-3.6 1.7,-4.6 3,-2.4c1.8,2.7 4.5,6.4 7.8,8.8c5,3.7 11.9,4.3 15.7,0.5c4.2,-4.3 4.2,-11.3 1,-16.2c-2.4,-3.7 -6.6,-6.8 -9.6,-8.7c-2.1,-1.3 -1.9,-2.4 0.8,-2.7c4.2,-0.3 10.5,-0.3 15.8,1.8c7.8,3.1 14.6,11.3 14.6,22c0,10.7 -11.6,26.2 -25.9,26.2c-14.3,0 -18.8,-5.7 -21.6,-13.1c-2,-5.2 -2,-11.6 -1.6,-16.2z" fill="#ffffff" stroke="none" stroke-width="1" stroke-linecap="butt" stroke-linejoin="miter" stroke-miterlimit="10"/><path d="M367.95,109.25c0.4,4.6 0.4,11 -1.6,16.2c-2.8,7.4 -10.8,13.1 -21.6,13.1c-10.8,0 -25.9,-11.9 -25.9,-26.2c0,-14.3 6.8,-18.9 14.6,-22c5.3,-2.1 11.6,-2.1 15.8,-1.8c2.7,0.2 2.9,1.3 0.8,2.7c-3,1.9 -7.2,4.9 -9.6,8.7c-3.1,4.9 -3.2,11.9 1,16.2c3.8,3.8 10.7,3.2 15.7,-0.5c3.3,-2.4 6,-6.1 7.8,-8.8c1.4,-2.1 2.7,-1.2 3,2.4z" fill="#ffffff" stroke="none" stroke-width="1" stroke-linecap="butt" stroke-linejoin="miter" stroke-miterlimit="10"/></g></g></svg>